<svg width="134" height="134" viewBox="0 0 134 134" fill="none" xmlns="http://www.w3.org/2000/svg">
<g clip-path="url(#clip0_1780_294)">
<path fill-rule="evenodd" clip-rule="evenodd" d="M24.6021 17.7968C24.6021 16.0796 25.983 14.2632 27.3956 13.7859C29.1739 13.1853 34.0565 13.9058 35.551 8.33205C35.9244 6.93848 35.3899 4.44944 38.7346 4.44944H54.9611C59.9127 4.44944 56.2842 9.08831 60.8241 12.1956C62.8971 13.6141 63.7537 13.0008 66.1003 13.7237C70.9409 15.2157 70.4347 24.6016 60.9803 24.6016C55.5803 24.6016 33.3742 24.982 29.6756 24.2384C26.7603 23.6525 24.6016 20.812 24.6016 17.7968H24.6021ZM0.000489487 21.1992V123.531C0.000489487 128.771 5.22919 134 10.4691 134H83.7507C86.3024 134 89.5982 131.974 91.2678 130.001C93.1322 127.799 93.9575 124.883 93.9575 120.914V94.4803C93.9575 90.8747 90.3451 90.9212 89.4831 92.8851C88.602 94.8915 90.093 121.837 88.8037 125.182C87.6495 128.176 85.1947 129.551 81.1335 129.551H12.3013C7.19399 129.551 4.44993 126.807 4.44993 121.699V23.8165C4.44993 13.644 12.9822 15.7032 20.4145 15.7032C19.9001 16.6191 20.1527 19.0083 20.1527 20.1527H14.9181C11.8451 20.1527 8.89838 23.326 8.89838 26.4338V118.821C8.89838 121.941 12.0585 125.102 15.1795 125.102H78.5157C82.8099 125.102 85.0586 121.312 85.0586 116.727V103.641C85.0586 99.8275 81.3018 99.6767 80.5094 101.97C80.0977 103.161 80.4531 115.372 80.3576 117.783C80.2646 120.132 79.0438 120.652 76.684 120.652H17.0121C14.1799 120.652 13.3478 119.821 13.3478 116.988V28.2649C13.3478 23.7083 15.6274 24.6011 21.9843 24.6011C22.7318 24.6011 25.2756 29.0501 30.6208 29.0501H62.8124C68.9051 29.0501 70.7416 24.6011 71.9727 24.6011C81.3806 24.6011 80.3478 23.956 80.3478 32.1911C80.3478 35.0884 80.0267 59.9969 80.5843 61.2671C81.504 63.3621 85.0586 63.1218 85.0586 59.41V28.7887C85.0586 19.3161 79.247 20.1522 73.543 20.1522C73.543 17.7831 74.1372 20.0597 73.4984 15.7106C80.5118 15.7047 86.8394 14.3919 88.9041 20.2329C89.6633 22.3798 89.2467 38.5045 89.2467 42.1365C89.2467 48.8048 88.3779 51.2968 92.1254 51.2968C93.2394 51.2968 93.9575 49.6771 93.9575 48.4176V23.816C93.9575 19.4072 92.6183 15.6004 89.1366 13.1956C85.4409 10.6429 81.8319 10.9919 75.8989 10.9919C71.9561 10.9919 71.4499 11.4452 69.1782 10.1226C68.488 9.72073 67.2609 9.18572 66.3681 9.00656C62.8731 8.30513 63.1287 9.28851 62.4463 5.33835C61.9558 2.5003 59.3131 -0.000976562 56.0081 -0.000976562H37.4262C35.3449 -0.000976562 33.6855 1.37106 32.6449 2.54582C29.7236 5.84301 33.3326 8.34918 28.0471 8.94048C27.0451 9.05258 26.0921 9.34333 25.2042 9.76184C24.6809 10.0085 24.4592 10.1613 24.0534 10.4432C22.6275 11.4344 22.3882 10.9919 19.1057 10.9914C12.4452 10.9914 6.36088 10.0002 2.01228 15.8824C1.25064 16.9128 0 19.5697 0 21.1982L0.000489487 21.1992Z" fill="white"/>
<path fill-rule="evenodd" clip-rule="evenodd" d="M62.813 101.547L70.6643 88.4607C71.6556 88.7255 75.5289 92.7525 76.1603 93.6953L66.3285 99.5667C65.4498 100.093 63.6382 101.326 62.8125 101.547H62.813ZM79.8246 90.8161L73.7437 84.5962L98.8652 59.3445L105.014 65.3652C104.63 66.6237 93.7549 77.0165 92.5831 78.1883C90.6809 80.0905 81.0067 90.0246 79.8241 90.8161H79.8246ZM109.922 63.8591L100.436 54.5016C101.898 53.504 114.725 40.2511 117.703 37.3539C123.929 31.2955 132.52 39.1395 128.024 45.5821C127.262 46.6752 126.499 47.4133 125.56 48.3521C123.478 50.4329 111.05 63.1033 109.922 63.8591ZM55.4844 106.519C55.4844 107.813 56.5461 108.875 57.8398 108.875C59.5496 108.875 60.0126 107.239 61.0479 106.57C62.3411 105.734 62.0885 107.358 65.255 105.559C68.3838 103.782 80.8462 96.4966 82.902 94.4168C87.185 90.0833 91.7084 85.8933 95.7261 81.3303C96.1994 80.7929 96.6453 80.4067 97.1637 79.8888C98.9033 78.1506 107.864 69.428 108.614 68.3075C111.549 68.9914 112.534 67.9248 114.96 65.494L127.196 53.1276C131.934 56.3004 128.267 58.207 122.812 63.6618C121.134 65.3398 119.648 66.8259 117.97 68.5038C117.15 69.3237 116.064 70.0927 115.688 71.2053C115.376 72.1275 115.532 74.0654 118.036 74.0654C119.315 74.0654 119.886 73.1412 120.588 72.43C123.073 69.9155 131.615 61.6838 133 59.717C133.951 58.3666 134.001 57.2613 134.001 55.483C134.001 52.5157 131.791 51.5064 130.598 49.7251C131.02 49.0957 131.262 48.989 131.759 48.2684C132.179 47.659 132.398 47.2102 132.701 46.5939C135.787 40.3255 131.935 31.991 124.075 30.8584C117.434 29.9014 114.086 34.4385 110.773 37.7513L97.9464 50.5734C97.0066 51.5005 96.17 52.271 96.0658 53.9269C95.9273 56.1188 96.5846 55.087 94.285 57.3802L68.564 83.2178L58.7923 99.3567C57.2485 102.304 58.8599 101.991 57.6641 103.462C57.0414 104.228 55.4854 105.198 55.4854 106.518L55.4844 106.519Z" fill="#EBA707"/>
<path fill-rule="evenodd" clip-rule="evenodd" d="M37.9491 49.203H71.4491C74.367 49.203 74.9891 44.4922 70.664 44.4922H38.7343C34.4885 44.4922 35.1282 49.203 37.9491 49.203Z" fill="#EBA707"/>
<path fill-rule="evenodd" clip-rule="evenodd" d="M38.2127 40.3051H71.1894C73.4572 40.3051 74.7088 37.6408 72.9183 36.2208C72.4484 35.8483 71.4493 35.5938 70.6662 35.5938H38.7364C34.4152 35.5938 35.1235 40.3046 38.2132 40.3046L38.2127 40.3051Z" fill="#EBA707"/>
<path fill-rule="evenodd" clip-rule="evenodd" d="M37.9517 67.0002H71.975C74.2071 67.0002 74.3265 62.5508 71.975 62.5508H37.428C35.4279 62.5508 34.7079 67.0002 37.9512 67.0002H37.9517Z" fill="#EBA707"/>
<path fill-rule="evenodd" clip-rule="evenodd" d="M37.9517 58.1018H71.4517C74.6182 58.1018 74.209 53.6523 71.975 53.6523H37.428C35.4279 53.6523 34.7079 58.1018 37.9512 58.1018H37.9517Z" fill="#EBA707"/>
<path fill-rule="evenodd" clip-rule="evenodd" d="M37.4259 75.8982H71.9729C74.294 75.8982 74.4418 71.4492 71.4496 71.4492H37.9496C36.7778 71.4492 35.8473 72.2838 35.6848 73.3709C35.5316 74.3915 36.4518 75.8987 37.4264 75.8987L37.4259 75.8982Z" fill="#EBA707"/>
<path fill-rule="evenodd" clip-rule="evenodd" d="M20.1542 89.2459C20.1542 91.4451 22.5253 92.4168 23.5566 93.9567C19.044 96.9783 19.0905 100.5 22.5096 100.5C24.2257 100.5 25.7069 97.9357 26.959 97.0973C27.6546 98.1359 29.8113 100.5 31.1466 100.5C33.0223 100.5 34.8882 98.5476 32.1305 95.8515C31.4168 95.1535 30.8911 94.4868 30.0996 93.9567C31.2445 92.2464 33.502 91.3213 33.502 89.2459C33.502 87.7681 32.5495 87.1523 31.1466 87.1523C29.4305 87.1523 27.9493 89.7163 26.6972 90.5548C26.1994 89.8112 25.5939 89.3286 24.9321 88.656C24.0094 87.7187 23.7769 87.1523 22.2482 87.1523C20.9824 87.1523 20.1547 87.9801 20.1547 89.2459H20.1542Z" fill="#EBA707"/>
<path fill-rule="evenodd" clip-rule="evenodd" d="M37.9517 20.1522H55.7485C58.8019 20.1522 59.311 15.4414 54.9634 15.4414H39.2601C37.498 15.4414 36.2708 15.8619 35.7907 17.2324C35.3144 18.5927 36.3178 20.1527 37.9513 20.1527L37.9517 20.1522Z" fill="white"/>
<path fill-rule="evenodd" clip-rule="evenodd" d="M37.9492 93.6961C37.9492 95.2546 39.1005 96.0515 39.7814 96.0515H56.2697C58.5561 96.0515 58.936 91.6025 56.0079 91.6025H40.0428C38.7769 91.6025 37.9492 92.4303 37.9492 93.6961Z" fill="#EBA707"/>
<path fill-rule="evenodd" clip-rule="evenodd" d="M71.4492 106.782V114.372C71.4492 116.625 75.8982 116.746 75.8982 114.372V107.044C75.8982 103.933 71.4492 104.637 71.4492 106.782Z" fill="white"/>
<path fill-rule="evenodd" clip-rule="evenodd" d="M20.1523 46.324C20.1523 49.8434 22.0736 49.2031 26.6953 49.2031C29.6885 49.2031 30.3126 44.4923 25.9102 44.4923C24.2944 44.4923 20.1523 44.2074 20.1523 46.3245V46.324Z" fill="#EBA707"/>
<path fill-rule="evenodd" clip-rule="evenodd" d="M20.1523 37.4255C20.1523 40.8386 22.1083 40.3046 26.1721 40.3046C30.0537 40.3046 30.0537 35.5938 26.1721 35.5938C24.6468 35.5938 20.1523 35.1905 20.1523 37.4259V37.4255Z" fill="#EBA707"/>
<path fill-rule="evenodd" clip-rule="evenodd" d="M20.1528 55.2227C20.1528 58.8048 21.9209 58.1019 27.2191 58.1019C29.3645 58.1019 30.0674 53.6524 26.9572 53.6524C24.4598 53.6524 20.1523 53.0088 20.1523 55.2227H20.1528Z" fill="#EBA707"/>
<path fill-rule="evenodd" clip-rule="evenodd" d="M20.1523 73.5431C20.1523 76.6088 22.8049 75.8985 26.9572 75.8985C30.0674 75.8985 29.364 71.4496 27.2191 71.4496C23.5655 71.4496 20.1528 70.7301 20.1528 73.5431H20.1523Z" fill="#EBA707"/>
<path fill-rule="evenodd" clip-rule="evenodd" d="M20.1528 64.6446C20.1528 67.7357 22.8724 67 27.2191 67C29.505 67 29.8853 62.5506 26.9572 62.5506C23.4711 62.5506 20.1523 61.8555 20.1523 64.6441L20.1528 64.6446Z" fill="#EBA707"/>
</g>
<defs>
<clipPath id="clip0_1780_294">
<rect width="134" height="134" fill="white"/>
</clipPath>
</defs>
</svg>
