<svg width="60" height="60" viewBox="0 0 60 60" fill="none" xmlns="http://www.w3.org/2000/svg">
<circle cx="30" cy="30" r="30" fill="white"/>
<g clip-path="url(#clip0_1870_1409)">
<path d="M18.2561 21.65L20.168 22.7534C20.3388 22.8534 20.55 22.8545 20.7216 22.7559C20.8935 22.6573 20.9991 22.4741 20.9985 22.2761C20.9983 22.0781 20.8919 21.8957 20.7197 21.7976L18.8078 20.6942C18.5443 20.5444 18.2089 20.6354 18.0573 20.8981C17.9059 21.1608 17.9945 21.4964 18.2561 21.65Z" fill="#EBA707"/>
<path d="M20.1683 32.8325L18.2564 33.936C18.0842 34.034 17.9778 34.2164 17.9775 34.4144C17.977 34.6124 18.0826 34.7956 18.2545 34.8942C18.4261 34.9928 18.6373 34.9917 18.8081 34.8918L20.72 33.7883C20.8921 33.6903 20.9986 33.5079 20.9988 33.3099C20.9994 33.1119 20.8938 32.9287 20.7219 32.8301C20.5503 32.7315 20.3391 32.7326 20.1683 32.8325Z" fill="#EBA707"/>
<path d="M41.7434 33.936L39.8315 32.8325C39.6607 32.7326 39.4495 32.7315 39.2779 32.8301C39.106 32.9287 39.0004 33.1119 39.001 33.3099C39.0012 33.5079 39.1077 33.6903 39.2798 33.7883L41.1917 34.8918C41.3625 34.9917 41.5737 34.9928 41.7453 34.8942C41.9172 34.7956 42.0228 34.6124 42.0223 34.4144C42.022 34.2164 41.9156 34.034 41.7434 33.936Z" fill="#EBA707"/>
<path d="M39.5566 22.8279C39.6536 22.8282 39.7487 22.8026 39.8325 22.7541L41.7444 21.6506C41.9165 21.5526 42.0229 21.3702 42.0232 21.1722C42.0237 20.9742 41.9181 20.791 41.7465 20.6924C41.5746 20.5938 41.3634 20.5949 41.1926 20.6948L39.2807 21.7983C39.0647 21.9233 38.9591 22.1778 39.0237 22.4189C39.0884 22.6601 39.3071 22.8279 39.5566 22.8279Z" fill="#EBA707"/>
<path d="M35.2418 18.7154C35.5058 18.8679 35.843 18.7774 35.9955 18.5137L37.099 16.6018C37.2488 16.3383 37.1577 16.0029 36.895 15.8512C36.6324 15.6998 36.2967 15.7885 36.1432 16.05L35.0397 17.9619C34.8875 18.2257 34.978 18.5632 35.2418 18.7154Z" fill="#EBA707"/>
<path d="M30 17.3103C30.3047 17.3103 30.5517 17.0633 30.5517 16.7586V14.5517C30.5517 14.247 30.3047 14 30 14C29.6953 14 29.4482 14.247 29.4482 14.5517V16.7586C29.4482 17.0633 29.6953 17.3103 30 17.3103Z" fill="#EBA707"/>
<path d="M24.0047 18.5137C24.1027 18.6858 24.2851 18.7922 24.4831 18.7925C24.6811 18.793 24.8643 18.6874 24.9629 18.5156C25.0615 18.3439 25.0604 18.1327 24.9605 17.9619L23.857 16.05C23.7035 15.7885 23.3678 15.6998 23.1051 15.8512C22.8425 16.0029 22.7514 16.3383 22.9012 16.6018L24.0047 18.5137Z" fill="#EBA707"/>
<path d="M19.5174 27.7929C19.5174 27.4882 19.2703 27.2412 18.9657 27.2412H16.7588C16.4541 27.2412 16.207 27.4882 16.207 27.7929C16.207 28.0976 16.4541 28.3447 16.7588 28.3447H18.9657C19.2703 28.3447 19.5174 28.0976 19.5174 27.7929Z" fill="#EBA707"/>
<path d="M43.241 27.2412H41.0341C40.7295 27.2412 40.4824 27.4882 40.4824 27.7929C40.4824 28.0976 40.7295 28.3447 41.0341 28.3447H43.241C43.5457 28.3447 43.7928 28.0976 43.7928 27.7929C43.7928 27.4882 43.5457 27.2412 43.241 27.2412Z" fill="#EBA707"/>
<path d="M32.7585 39.9307H27.2412V41.0635C28.0456 41.0425 29.6135 41.0479 32.7585 41.0635V39.9307Z" fill="#EBA707"/>
<path d="M32.7585 42.1656C30.7948 42.1575 28.2999 42.1502 27.2412 42.1569V43.241H32.7585V42.1656Z" fill="#EBA707"/>
<path d="M28.3447 44.3447C28.3447 45.2588 29.0858 45.9999 29.9999 45.9999C30.914 45.9999 31.6551 45.2588 31.6551 44.3447H28.3447Z" fill="#EBA707"/>
<path d="M34.0948 34.9841C37.3553 33.1282 38.9599 29.3112 38.004 25.6835C37.0485 22.0555 33.7718 19.5243 30.0202 19.5156C26.2683 19.507 22.9803 22.0235 22.0081 25.6468C21.0358 29.2705 22.6228 33.0946 25.8747 34.9653C26.4949 35.3246 26.9491 35.9133 27.1393 36.6045L32.854 36.6204C33.0318 35.9308 33.4787 35.3413 34.0948 34.9841ZM28.3448 32.7584C28.1985 32.7584 28.0582 32.7002 27.9547 32.5967L24.8338 29.4755C24.6245 29.2592 24.6274 28.9149 24.8402 28.7021C25.0531 28.4892 25.3974 28.4863 25.6137 28.6956L28.3448 31.4265L34.1964 25.5744C34.4119 25.3589 34.7616 25.3589 34.9771 25.5744C35.1926 25.7899 35.1926 26.1396 34.9771 26.3551L28.7349 32.5967C28.6315 32.7002 28.4911 32.7584 28.3448 32.7584Z" fill="#EBA707"/>
<path d="M32.7585 37.7227L27.2412 37.709V38.8272H32.7585V37.7227Z" fill="#EBA707"/>
</g>
<defs>
<clipPath id="clip0_1870_1409">
<rect width="32" height="32" fill="white" transform="translate(14 14)"/>
</clipPath>
</defs>
</svg>
