<svg width="68" height="68" viewBox="0 0 68 68" fill="none" xmlns="http://www.w3.org/2000/svg">
<g filter="url(#filter0_d_1870_1351)">
<circle cx="34" cy="30" r="30" fill="white"/>
<g clip-path="url(#clip0_1870_1351)">
<path d="M18.8937 33.3126L20.9819 33.6548C21.3118 35.2538 21.9432 36.7754 22.8423 38.1382L21.6057 39.8641C21.3491 40.2134 21.3535 40.6901 21.6166 41.0346C21.9284 41.4158 22.2597 41.7805 22.6091 42.1275C22.9617 42.4806 23.3251 42.806 23.6994 43.1206C24.0441 43.3842 24.5214 43.3886 24.8709 43.1315L26.5958 41.8943C27.9573 42.7939 29.4778 43.4257 31.0759 43.7558L31.4176 45.8456C31.4827 46.2731 31.8238 46.6054 32.2529 46.6592C32.5501 46.6928 32.8495 46.7134 33.1554 46.7286C33.304 46.7359 33.4491 46.6822 33.5572 46.5801C33.6653 46.4779 33.727 46.3361 33.7282 46.1873V41.8406C33.7266 41.5476 33.4939 41.3081 33.201 41.2982C27.7199 41.0141 23.4214 36.487 23.4214 30.9985C23.4214 25.5101 27.7199 20.983 33.201 20.6988C33.4939 20.6889 33.7266 20.4495 33.7282 20.1564V15.8135C33.7275 15.6648 33.6661 15.5229 33.5583 15.4205C33.4505 15.3181 33.3055 15.2642 33.157 15.2711C32.8522 15.2838 32.5508 15.3051 32.2528 15.3351C31.8237 15.3936 31.4839 15.7272 31.4176 16.1552L31.0758 18.245C29.4778 18.5756 27.9573 19.2075 26.5957 20.107L24.8709 18.8693C24.5213 18.6122 24.044 18.6166 23.6993 18.8802C23.3192 19.1924 22.9553 19.5239 22.6091 19.8733C22.257 20.2177 21.9256 20.5827 21.6165 20.9662C21.3524 21.3111 21.348 21.7891 21.6056 22.1388L22.8423 23.8647C21.9434 25.2271 21.312 26.748 20.9819 28.3465L18.8937 28.6882C18.4661 28.7535 18.1338 29.0948 18.0801 29.5241C17.9733 30.4974 17.9733 31.4796 18.0801 32.4529C18.1283 32.8893 18.4606 33.2404 18.8937 33.3126Z" fill="#EBA707"/>
<path d="M33.2094 22.8803C28.9244 23.1518 25.5879 26.7063 25.5879 30.9999C25.5879 35.2935 28.9244 38.848 33.2094 39.1194C33.3457 39.1251 33.4784 39.0746 33.5764 38.9796C33.6744 38.8846 33.7292 38.7536 33.7279 38.6172V23.3826C33.7292 23.2461 33.6745 23.1151 33.5764 23.0202C33.4784 22.9252 33.3457 22.8746 33.2094 22.8803Z" fill="#EBA707"/>
<path d="M37.5244 23.4074H34.8125V24.4922H37.5244C38.422 24.4895 39.1489 23.7626 39.1516 22.865V19.5109C39.8988 19.2467 40.347 18.4827 40.213 17.7016C40.0789 16.9205 39.4017 16.3496 38.6092 16.3496C37.8167 16.3496 37.1395 16.9205 37.0054 17.7016C36.8714 18.4827 37.3196 19.2467 38.0668 19.5109V22.865C38.0668 23.1646 37.824 23.4074 37.5244 23.4074Z" fill="#EBA707"/>
<path d="M34.8125 26.661H40.2364C40.536 26.661 40.7788 26.4182 40.7788 26.1186C40.7788 25.819 40.536 25.5762 40.2364 25.5762H34.8125V26.661Z" fill="#EBA707"/>
<path d="M34.8125 38.5936H37.5244C37.824 38.5936 38.0668 38.8364 38.0668 39.136V42.4901C37.3197 42.7542 36.8715 43.5183 37.0055 44.2993C37.1395 45.0804 37.8167 45.6513 38.6092 45.6513C39.4017 45.6513 40.079 45.0804 40.213 44.2993C40.347 43.5183 39.8988 42.7542 39.1516 42.4901V39.136C39.149 38.2384 38.4221 37.5115 37.5245 37.5088H34.8126V38.5936H34.8125Z" fill="#EBA707"/>
<path d="M42.9483 33.1699H34.8125V34.2547H42.9483C43.2479 34.2547 43.4908 34.4975 43.4908 34.7971V37.6089C42.7436 37.873 42.2954 38.637 42.4294 39.4181C42.5634 40.1992 43.2406 40.7701 44.0332 40.7701C44.8256 40.7701 45.5029 40.1992 45.6369 39.4181C45.7709 38.637 45.3228 37.873 44.5756 37.6089V34.7971C44.5728 33.8995 43.8459 33.1726 42.9483 33.1699Z" fill="#EBA707"/>
<path d="M48.3723 29.373C47.6852 29.3759 47.0739 29.81 46.8449 30.4578H34.8125V31.5426H46.8449C47.122 32.3207 47.939 32.7669 48.7435 32.5796C49.548 32.3923 50.0838 31.6312 49.9888 30.8107C49.8939 29.9902 49.1982 29.3716 48.3723 29.373Z" fill="#EBA707"/>
<path d="M40.7788 35.8823C40.7788 35.5827 40.536 35.3398 40.2364 35.3398H34.8125V36.4246H40.2364C40.536 36.4247 40.7788 36.1818 40.7788 35.8823Z" fill="#EBA707"/>
<path d="M44.5755 27.2035V24.3917C45.3227 24.1276 45.7709 23.3636 45.6369 22.5825C45.5029 21.8014 44.8257 21.2305 44.0331 21.2305C43.2407 21.2305 42.5634 21.8014 42.4294 22.5825C42.2954 23.3636 42.7436 24.1276 43.4907 24.3917V27.2035C43.4907 27.5031 43.2479 27.7459 42.9483 27.7459H34.8125V28.8307H42.9483C43.846 28.8279 44.5729 28.101 44.5755 27.2035Z" fill="#EBA707"/>
</g>
</g>
<defs>
<filter id="filter0_d_1870_1351" x="0" y="0" width="68" height="68" filterUnits="userSpaceOnUse" color-interpolation-filters="sRGB">
<feFlood flood-opacity="0" result="BackgroundImageFix"/>
<feColorMatrix in="SourceAlpha" type="matrix" values="0 0 0 0 0 0 0 0 0 0 0 0 0 0 0 0 0 0 127 0" result="hardAlpha"/>
<feOffset dy="4"/>
<feGaussianBlur stdDeviation="2"/>
<feComposite in2="hardAlpha" operator="out"/>
<feColorMatrix type="matrix" values="0 0 0 0 0 0 0 0 0 0 0 0 0 0 0 0 0 0 0.25 0"/>
<feBlend mode="normal" in2="BackgroundImageFix" result="effect1_dropShadow_1870_1351"/>
<feBlend mode="normal" in="SourceGraphic" in2="effect1_dropShadow_1870_1351" result="shape"/>
</filter>
<clipPath id="clip0_1870_1351">
<rect width="32" height="32" fill="white" transform="translate(18 15)"/>
</clipPath>
</defs>
</svg>
