<svg width="207" height="61" viewBox="0 0 207 61" fill="none" xmlns="http://www.w3.org/2000/svg">
<path d="M23.1321 20.3008L12.3198 5.2202H5.04227V55.1549H9.77265V10.1768L23.7559 28.2629L43.4051 0H58.5839V42.2889H49.487V55.1549H53.4897V46.7709H58.5839V60.3223H44.3928V42.2889H25.2633L49.487 8.33123V37.1214H53.4897V5.2202H46.0562L24.0158 36.9633L14.9189 25.2046V60.3751H0V0.105459H14.9189L26.251 15.9243L23.184 20.3535L23.1321 20.3008ZM35.1919 37.1214H44.3408V24.3082L35.1919 37.1214Z" fill="#EBA707"/>
<path d="M79.332 20.4062H78.0844V25.31H74.8616V9.86031H79.332C81.2034 9.86031 82.6069 10.3349 83.6465 11.2313C84.6342 12.1277 85.154 13.3932 85.154 14.9751C85.154 16.5569 84.6862 17.8752 83.6985 18.9298C82.7628 19.9316 81.3073 20.4589 79.332 20.4589V20.4062ZM78.0844 12.8659V17.4006H79.436C80.9955 17.4006 81.7232 16.6624 81.7232 15.1332C81.7232 14.3423 81.5153 13.815 81.1514 13.4459C80.7875 13.0768 80.1637 12.9186 79.28 12.9186H78.0844V12.8659ZM90.976 15.8187H96.1223V18.8243H90.976V22.2517H96.85V25.2573H87.7531V9.80758H96.798V12.8132H90.976V15.766V15.8187ZM103.504 25.2573H100.281V9.80758H103.504V16.6624L108.546 9.80758H112.081L106.675 17.0315L112.809 25.2573H108.754L103.452 17.8752V25.2573H103.504ZM123.517 25.2573V12.8132H119.41V15.8187C119.41 19.0352 118.994 21.4608 118.163 23.0954C117.331 24.73 116.031 25.5209 114.212 25.5209C113.744 25.5209 113.328 25.4682 113.068 25.3627V22.3572C113.536 22.3572 113.848 22.3572 114.004 22.3044C114.94 22.0935 115.564 21.408 115.824 20.248C116.083 19.1407 116.239 17.1897 116.239 14.4478V9.75485H126.74V25.2045H123.517V25.2573ZM138.8 23.1481H133.03L132.094 25.2573H128.715L135.785 9.49121H136.097L143.322 25.2573H139.683L138.8 23.1481ZM135.941 16.346L134.329 20.1425H137.552L135.993 16.346H135.941ZM148.26 9.43848L153.407 19.5625L158.553 9.43848H159.021L163.075 25.2045H159.696L157.617 17.4006L153.511 25.2045H153.043L148.988 17.3479L146.909 25.2045H143.686L147.741 9.43848H148.208H148.26ZM174.875 18.6134H168.637V25.2045H165.414V9.75485H168.637V15.6078H174.875V9.75485H178.098V25.2045H174.875V18.6134ZM190.158 23.0954H184.388L183.452 25.2045H180.073L187.143 9.43848H187.455L194.68 25.2045H191.042L190.158 23.0954ZM187.299 16.2933L185.688 20.0898H188.91L187.351 16.2933H187.299ZM203.777 25.1518V19.9316H202.322L199.151 25.1518H195.148L199.047 19.0879C198.215 18.877 197.591 18.3497 197.072 17.5588C196.552 16.7679 196.292 15.8715 196.292 14.8696C196.292 13.235 196.812 11.9168 197.799 11.0204C198.839 10.124 200.087 9.64939 201.646 9.64939H207V25.0991H203.777V25.1518ZM203.777 16.926V12.7077H201.854C201.178 12.7077 200.658 12.8659 200.243 13.235C199.879 13.6041 199.671 14.1314 199.671 14.8169C199.671 15.3969 199.879 15.9242 200.243 16.2933C200.606 16.6624 201.126 16.8733 201.802 16.8733H203.725L203.777 16.926ZM78.0325 50.4092H74.8096V34.9595H78.0325V41.8143L83.0747 34.9595H86.6095L81.2034 42.1834L87.3373 50.4092H83.2827L77.9805 43.0271V50.4092H78.0325ZM91.7038 42.7107C91.7038 44.0289 92.1196 45.2417 92.9514 46.2435C93.7831 47.2454 94.9787 47.7727 96.4861 47.7727C97.8377 47.7727 98.9813 47.2981 99.865 46.349C100.749 45.3999 101.217 44.1871 101.217 42.7634C101.217 41.4452 100.801 40.2851 99.917 39.2833C99.0852 38.2814 97.9416 37.7541 96.4342 37.7541C95.0306 37.7541 93.887 38.2287 93.0033 39.1778C92.1196 40.1269 91.6518 41.3397 91.6518 42.8161L91.7038 42.7107ZM88.3249 42.7107C88.3249 40.4961 89.0527 38.5451 90.6121 37.0159C92.1716 35.434 94.1469 34.6958 96.5381 34.6958C97.8377 34.6958 99.0333 34.9595 100.125 35.434C101.217 35.9086 102.1 36.5414 102.724 37.385C104.024 38.9669 104.647 40.7597 104.647 42.7634C104.647 45.0308 103.868 46.929 102.36 48.4582C100.853 50.0401 98.9293 50.7783 96.5381 50.7783C94.043 50.7783 92.0676 49.9873 90.5602 48.4582C89.1047 46.8763 88.3249 44.978 88.3249 42.7634V42.7107ZM111.197 34.6431L116.343 44.7671L121.49 34.6431H121.957L126.012 50.4092H122.633L120.554 42.6052L116.447 50.4092H115.979L111.925 42.5525L109.846 50.4092H106.623L110.677 34.6431H111.145H111.197ZM138.644 37.965H132.354V50.4092H129.131V34.9595H141.919V50.4092H138.696V37.965H138.644ZM154.654 48.3H148.884L147.948 50.4092H144.57L151.639 34.6431H151.951L159.177 50.4092H155.538L154.654 48.3ZM151.795 41.4979L150.184 45.2944H153.407L151.847 41.4979H151.795ZM171.34 43.818H165.103V50.4092H161.88V34.9595H165.103V40.8124H171.34V34.9595H174.563V50.4092H171.34V43.818ZM188.754 50.4092V41.7616L179.71 50.7783H179.242V35.0122H182.465V43.6598L191.562 34.6431H192.029V50.4092H188.806H188.754ZM203.777 50.4092V45.189H202.322L199.151 50.4092H195.148L199.047 44.3453C198.215 44.1344 197.591 43.6071 197.072 42.8161C196.552 42.0252 196.292 41.1288 196.292 40.1269C196.292 38.4923 196.812 37.1741 197.799 36.2777C198.839 35.3813 200.087 34.9067 201.646 34.9067H207V50.3564H203.777V50.4092ZM203.777 42.1834V37.965H201.854C201.178 37.965 200.658 38.1232 200.243 38.4923C199.879 38.8614 199.671 39.3887 199.671 40.0742C199.671 40.6542 199.879 41.1815 200.243 41.5506C200.606 41.9197 201.126 42.1307 201.802 42.1307H203.725L203.777 42.1834Z" fill="#FEFEFE"/>
</svg>
