<svg width="131" height="69" viewBox="0 0 131 69" fill="none" xmlns="http://www.w3.org/2000/svg">
<path d="M12.6149 65.6251H8.53691V22.0189H11.4682V11.0171H119.646V22.0189H122.322V64.1563H118.309V67.528H122.322H126.909H130.923V64.1563H126.909V22.0189H129.664V6.77048C129.664 3.03119 126.924 0 123.547 0H7.23162C3.85338 0 1.11487 3.03119 1.11487 6.77048V22.0189H3.95009V65.6251H0V69H12.6155V65.6251H12.6149ZM116.97 4.27119C118.024 4.27119 118.881 5.21931 118.881 6.38685C118.881 7.55504 118.024 8.5025 116.97 8.5025C115.916 8.5025 115.059 7.55438 115.059 6.38685C115.059 5.21931 115.916 4.27119 116.97 4.27119Z" fill="white"/>
<path fill-rule="evenodd" clip-rule="evenodd" d="M55.8759 34.2212C55.2313 33.5104 54.746 32.5211 54.746 31.1734C54.746 26.8124 59.3442 25.3065 61.5769 27.7672C64.6254 31.1255 61.9422 35.6154 59.2757 35.6154C57.7662 35.6154 57.1187 35.5935 55.8753 34.2218L55.8759 34.2212ZM49.2341 36.5343C50.892 35.0829 51.0103 35.7624 52.7859 37.3541C53.4827 37.9784 54.1675 38.5688 54.8415 39.2337C55.4968 39.88 56.1492 40.4817 56.8171 41.0581C57.5061 41.6519 58.1603 42.3826 58.8871 42.9218L74.0597 28.9121C75.6161 27.3835 76.1699 28.4327 77.3713 29.339L84.1074 34.777C84.7032 35.2617 85.2475 35.6453 85.8481 36.146C86.4254 36.6267 86.9462 37.0197 87.4934 37.4771C87.8905 37.8095 92.9807 41.8434 93.4696 41.9697V46.1245C93.4696 45.6092 86.5245 40.4012 86.0139 39.9744L75.4557 31.4599C75.1145 31.7884 74.8677 32.0397 74.4754 32.3808C74.1138 32.6946 73.7546 33.0284 73.4182 33.3595C72.1195 34.6394 70.5932 35.8641 69.3396 37.1546L61.1433 44.7017C60.8099 44.9916 60.4603 45.3114 60.1539 45.6126C59.8139 45.9463 59.4902 46.3599 58.8877 46.3599C58.245 46.3599 58.0311 46.0833 57.574 45.6651C57.243 45.3626 56.918 45.0694 56.5913 44.7469L50.6037 39.1965C49.8426 39.7603 47.3113 42.3759 46.3322 43.2084L43.7625 45.6651C43.503 45.8965 43.4603 45.8998 43.193 46.181C42.6891 46.7116 38.6254 50.1065 38.6254 50.5659V46.2675C39.3126 46.0647 47.9438 37.6626 49.2335 36.5336L49.2341 36.5343ZM15.2871 55.6549C15.2871 59.3936 18.0256 62.4254 21.4033 62.4254L109.163 62.4247C112.541 62.4247 115.28 59.3936 115.28 55.6549V27.0943C115.28 23.355 115.623 19.0712 116.045 17.526C116.466 15.9808 116.81 14.7275 116.81 14.7275H21.4039C18.0262 14.7275 15.2877 17.7587 15.2877 21.498V55.6549H15.2871Z" fill="#EBA707"/>
<path fill-rule="evenodd" clip-rule="evenodd" d="M57.4629 31.0305C57.4629 32.9739 59.17 32.9546 59.8332 32.2213C60.4957 31.4879 60.5132 29.5977 58.7574 29.5977C58.0299 29.5977 57.4629 30.2253 57.4629 31.0305Z" fill="white"/>
</svg>
