<svg width="55" height="51" viewBox="0 0 55 51" fill="none" xmlns="http://www.w3.org/2000/svg">
<path d="M23.2692 30.2598H21.1538C20.8622 30.2598 20.625 30.497 20.625 30.7886V33.4328H23.2692C23.5608 33.4328 23.798 33.1956 23.798 32.904V30.7886C23.798 30.497 23.5608 30.2598 23.2692 30.2598Z" fill="white"/>
<path d="M12.692 30.2598H10.5767C10.285 30.2598 10.0479 30.497 10.0479 30.7886V39.2501C10.0479 39.5418 10.285 39.7789 10.5767 39.7789H12.692C12.9837 39.7789 13.2209 39.5418 13.2209 39.2501V30.7886C13.2209 30.497 12.9836 30.2598 12.692 30.2598Z" fill="white"/>
<path d="M50.2403 19.683H44.9533L32.1035 10.0123C32.8635 9.02902 33.3172 7.79786 33.3172 6.46186C33.3172 3.25424 30.7076 0.644531 27.4999 0.644531C24.2922 0.644531 21.6826 3.25413 21.6826 6.46186C21.6826 7.79775 22.1363 9.02902 22.8962 10.0121L10.0464 19.683H4.75965C2.13512 19.683 0 21.8182 0 24.4427V45.5965C0 48.2209 2.13512 50.3562 4.75965 50.3562H50.2405C52.8649 50.3562 55.0001 48.221 55.0001 45.5965V24.4427C55 21.8182 52.8649 19.683 50.2403 19.683ZM25.5908 11.9557C26.1892 12.1643 26.8314 12.2792 27.5 12.2792C28.1688 12.2792 28.8108 12.1643 29.4093 11.9557L39.6767 19.683H15.3233L25.5908 11.9557ZM16.3942 39.2503C16.3942 41.2916 14.7336 42.9523 12.6923 42.9523H10.577C8.53563 42.9523 6.875 41.2916 6.875 39.2503V30.7888C6.875 28.7476 8.53563 27.0869 10.577 27.0869H12.6923C14.7336 27.0869 16.3942 28.7475 16.3942 30.7888V39.2503ZM26.9712 32.9042C26.9712 34.9454 25.3105 36.6062 23.2692 36.6062H20.625V41.3658C20.625 42.242 19.9146 42.9523 19.0385 42.9523C18.1624 42.9523 17.452 42.2419 17.452 41.3658V30.7888C17.452 28.7476 19.1126 27.0869 21.1539 27.0869H23.2693C25.3105 27.0869 26.9713 28.7475 26.9713 30.7888V32.9042H26.9712ZM33.8462 33.433C34.7224 33.433 35.4327 34.1434 35.4327 35.0195C35.4327 35.8958 34.7223 36.606 33.8462 36.606H31.202V39.7791H35.9616C36.8379 39.7791 37.5481 40.4895 37.5481 41.3656C37.5481 42.2417 36.8378 42.9521 35.9616 42.9521H29.6155C28.7392 42.9521 28.0289 42.2417 28.0289 41.3656V28.6734C28.0289 27.7971 28.7393 27.0869 29.6155 27.0869H35.9616C36.8379 27.0869 37.5481 27.7972 37.5481 28.6734C37.5481 29.5495 36.8378 30.2599 35.9616 30.2599H31.202V33.4329H33.8462V33.433ZM48.125 41.3657C48.125 42.1015 47.6191 42.7407 46.903 42.9098C46.7814 42.9385 46.6588 42.9524 46.5381 42.9524C45.9478 42.9524 45.3926 42.6216 45.1194 42.0753L41.7788 35.3941V41.3657C41.7788 42.2419 41.0685 42.9522 40.1923 42.9522C39.3162 42.9522 38.6058 42.2418 38.6058 41.3657V28.6734C38.6058 27.9375 39.1117 27.2984 39.8278 27.1293C40.5439 26.9601 41.2823 27.3057 41.6114 27.964L44.952 34.6451V28.6735C44.952 27.7972 45.6624 27.087 46.5385 27.087C47.4146 27.087 48.125 27.7972 48.125 28.6734V41.3657Z" fill="white"/>
</svg>
