<svg width="74" height="39" viewBox="0 0 74 39" fill="none" xmlns="http://www.w3.org/2000/svg">
<path d="M7.13019 37.0924H4.82521V12.4454H6.48205V6.22704H67.6259V12.4454H69.1385V36.2623H66.8702V38.168H69.1385H71.7314H74V36.2623H71.7314V12.4454H73.2884V3.82679C73.2884 1.71328 71.7398 0 69.8307 0H4.08744C2.178 0 0.630143 1.71328 0.630143 3.82679V12.4454H2.23266V37.0924H0V39H7.13053V37.0924H7.13019ZM66.1137 2.41415C66.7092 2.41415 67.1937 2.95005 67.1937 3.60996C67.1937 4.27024 66.7092 4.80576 66.1137 4.80576C65.5175 4.80576 65.0334 4.26986 65.0334 3.60996C65.0334 2.95005 65.5175 2.41415 66.1137 2.41415Z" fill="white"/>
<path fill-rule="evenodd" clip-rule="evenodd" d="M31.5821 19.3424C31.2178 18.9406 30.9435 18.3814 30.9435 17.6197C30.9435 15.1548 33.5425 14.3036 34.8044 15.6944C36.5275 17.5926 35.0109 20.1304 33.5038 20.1304C32.6506 20.1304 32.2846 20.118 31.5818 19.3427L31.5821 19.3424ZM27.8281 20.6498C28.7651 19.8294 28.832 20.2135 29.8356 21.1131C30.2295 21.466 30.6165 21.7997 30.9974 22.1755C31.3679 22.5408 31.7366 22.8809 32.1141 23.2067C32.5035 23.5423 32.8733 23.9553 33.2841 24.2601L41.8599 16.3416C42.7396 15.4776 43.0527 16.0706 43.7317 16.5828L47.539 19.6565C47.8758 19.9305 48.1834 20.1473 48.5229 20.4303C48.8492 20.702 49.1436 20.9241 49.4529 21.1827C49.6773 21.3706 52.5544 23.6506 52.8307 23.722V26.0703C52.8307 25.7791 48.9052 22.8354 48.6166 22.5942L42.649 17.7817C42.4561 17.9673 42.3166 18.1094 42.0949 18.3021C41.8905 18.4795 41.6875 18.6682 41.4973 18.8553C40.7633 19.5787 39.9006 20.271 39.192 21.0004L34.5593 25.2661C34.3709 25.43 34.1733 25.6107 34.0001 25.781C33.808 25.9696 33.625 26.2034 33.2844 26.2034C32.9211 26.2034 32.8003 26.047 32.5419 25.8107C32.3548 25.6397 32.1712 25.4739 31.9865 25.2917L28.6022 22.1545C28.172 22.4732 26.7413 23.9516 26.1879 24.4221L24.7354 25.8107C24.5887 25.9414 24.5646 25.9433 24.4135 26.1023C24.1287 26.4022 21.8319 28.321 21.8319 28.5807V26.1511C22.2203 26.0365 27.0988 21.2875 27.8277 20.6494L27.8281 20.6498ZM8.64062 31.4571C8.64062 33.5702 10.1885 35.2839 12.0976 35.2839L61.7009 35.2835C63.61 35.2835 65.1586 33.5702 65.1586 31.4571V15.3141C65.1586 13.2006 65.3524 10.7793 65.5908 9.90597C65.8284 9.03261 66.023 8.32422 66.023 8.32422H12.0979C10.1888 8.32422 8.64096 10.0375 8.64096 12.151V31.4571H8.64062Z" fill="white"/>
<path fill-rule="evenodd" clip-rule="evenodd" d="M32.4795 17.5384C32.4795 18.6368 33.4444 18.6259 33.8192 18.2114C34.1937 17.7969 34.2036 16.7285 33.2112 16.7285C32.8 16.7285 32.4795 17.0833 32.4795 17.5384Z" fill="white"/>
</svg>
