<svg width="48" height="49" viewBox="0 0 48 49" fill="none" xmlns="http://www.w3.org/2000/svg">
<path d="M35.6258 22.0081L40.613 13.2877H31.3221C30.8728 13.2877 30.5086 12.9159 30.5086 12.4572C30.5086 11.9986 30.8728 11.6267 31.3221 11.6267H41.0848V9.1352C41.0848 8.67652 40.7206 8.30469 40.2713 8.30469H24.0001C23.5508 8.30469 23.1865 8.67652 23.1865 9.1352V11.6267H27.2543C27.7036 11.6267 28.0679 11.9986 28.0679 12.4572C28.0679 12.9159 27.7036 13.2877 27.2543 13.2877H23.6584L28.6455 22.0081C28.79 22.2635 29.0563 22.4216 29.3452 22.4233H34.9262C35.2151 22.4216 35.4814 22.2635 35.6258 22.0081Z" fill="white"/>
<path d="M45.1521 0.830508C45.1521 0.371831 44.7878 0 44.3385 0H42.7114V2.49152C42.7114 2.9502 42.3471 3.32203 41.8978 3.32203C41.4485 3.32203 41.0843 2.9502 41.0843 2.49152V0H39.4571V2.49152C39.4571 2.9502 39.0929 3.32203 38.6436 3.32203C38.1943 3.32203 37.83 2.9502 37.83 2.49152V0H36.2029V2.49152C36.2029 2.9502 35.8387 3.32203 35.3894 3.32203C34.94 3.32203 34.5758 2.9502 34.5758 2.49152V0H32.9487V2.49152C32.9487 2.9502 32.5844 3.32203 32.1351 3.32203C31.6858 3.32203 31.3216 2.9502 31.3216 2.49152V0H29.6944V2.49152C29.6944 2.9502 29.3302 3.32203 28.8809 3.32203C28.4316 3.32203 28.0673 2.9502 28.0673 2.49152V0H26.4402V2.49152C26.4402 2.9502 26.076 3.32203 25.6266 3.32203C25.1773 3.32203 24.8131 2.9502 24.8131 2.49152V0H23.186V2.49152C23.186 2.9502 22.8217 3.32203 22.3724 3.32203C21.9231 3.32203 21.5588 2.9502 21.5588 2.49152V0H19.9317C19.4824 0 19.1182 0.371831 19.1182 0.830508V5.81356C19.1182 6.27223 19.4824 6.64407 19.9317 6.64407H44.3385C44.7878 6.64407 45.1521 6.27223 45.1521 5.81356V0.830508Z" fill="white"/>
<path d="M29.6943 39.0339L32.135 40.6949L34.5757 39.0339V35.8779C29.6943 39.1917 30.036 39.0339 29.6943 39.0339Z" fill="white"/>
<path d="M34.5757 31.7256C29.6943 35.0476 30.036 34.8815 29.6943 34.8815V37.2069C34.5106 33.9264 34.2014 34.051 34.5757 34.051V31.7256Z" fill="white"/>
<path d="M34.5757 27.5732C29.6943 30.8953 30.036 30.7292 29.6943 30.7292V33.0546C34.5025 29.7824 34.2014 29.8987 34.5757 29.8987V27.5732Z" fill="white"/>
<path d="M34.5757 24.085H29.6943V28.9019C34.5187 25.6214 34.2014 25.746 34.5757 25.746V24.085Z" fill="white"/>
<path d="M25.863 37.9622C26.182 38.2879 26.6992 38.2879 27.0182 37.9622C27.3373 37.6365 27.3373 37.1085 27.0182 36.7829L20.5098 30.1388C20.3034 29.9281 20.0026 29.8459 19.7207 29.923C19.4388 30.0001 19.2186 30.2249 19.1431 30.5126C19.0676 30.8004 19.1481 31.1075 19.3545 31.3181L25.863 37.9622Z" fill="white"/>
<path d="M38.4082 37.9622L44.9166 31.3181C45.123 31.1075 45.2036 30.8004 45.1281 30.5126C45.0525 30.2249 44.8323 30.0001 44.5504 29.923C44.2685 29.8459 43.9678 29.9281 43.7614 30.1388L37.2529 36.7829C36.9339 37.1085 36.9339 37.6365 37.2529 37.9622C37.5719 38.2879 38.0892 38.2879 38.4082 37.9622Z" fill="white"/>
<path d="M17.4913 29.0683C17.9406 29.0683 18.3049 28.6964 18.3049 28.2377C18.3049 27.7791 17.9406 27.4072 17.4913 27.4072C17.042 27.4072 16.6777 27.7791 16.6777 28.2377C16.6777 28.6964 17.042 29.0683 17.4913 29.0683Z" fill="white"/>
<path d="M46.7794 29.0683C47.2287 29.0683 47.5929 28.6964 47.5929 28.2377C47.5929 27.7791 47.2287 27.4072 46.7794 27.4072C46.3301 27.4072 45.9658 27.7791 45.9658 28.2377C45.9658 28.6964 46.3301 29.0683 46.7794 29.0683Z" fill="white"/>
<path d="M26.9453 32.2075C27.2942 31.9223 27.3523 31.4031 27.0754 31.0448L23.8212 26.8923C23.6511 26.6311 23.3515 26.49 23.0465 26.5274C22.7415 26.5649 22.4832 26.7745 22.3787 27.0694C22.2741 27.3642 22.3412 27.6941 22.552 27.9221L25.8063 32.0746C26.0857 32.4309 26.5943 32.4902 26.9453 32.2075Z" fill="white"/>
<path d="M40.4496 26.8916L37.1954 31.0441C36.9185 31.4024 36.9766 31.9216 37.3256 32.2069C37.6765 32.4895 38.1851 32.4302 38.4646 32.074L41.7188 27.9214C41.9976 27.5654 41.9431 27.0464 41.5968 26.7587C41.4277 26.6203 41.2115 26.5565 40.9961 26.5815C40.7808 26.6064 40.5841 26.7181 40.4496 26.8916Z" fill="white"/>
<path d="M4.40918 11.8014C6.46615 12.876 7.31888 15.4214 6.33731 17.5568C4.68513 21.2583 6.15277 25.6327 9.68104 27.5229C11.7346 28.6006 12.5862 31.1426 11.6092 33.2783C11.2565 34.1223 11.6407 35.0983 12.4675 35.4584C13.2942 35.8185 14.2504 35.4262 14.6031 34.5822C16.2553 30.8807 14.7876 26.5063 11.2593 24.6161C9.21845 23.5267 8.37943 20.9901 9.35562 18.8607C11.0003 15.1609 9.53858 10.7935 6.02003 8.89458C3.95074 7.8318 3.08256 5.28332 4.05935 3.13916C4.41514 2.30874 4.05312 1.34046 3.24579 0.963227C2.84333 0.775856 2.3835 0.763825 1.97217 0.929905C1.56084 1.09598 1.23347 1.42586 1.06545 1.84357C-0.577192 5.5431 0.888681 9.90855 4.40918 11.8014Z" fill="white"/>
<path d="M19.8182 15.1652C19.6031 14.6133 19.1159 14.2204 18.5402 14.1347C17.9645 14.0489 17.3876 14.2831 17.027 14.7492C16.6663 15.2153 16.5767 15.8424 16.7917 16.3943C17.8494 19.0768 16.7104 20.1067 16.5558 20.2396C15.8823 20.7812 15.7361 21.7634 16.2216 22.4848C16.707 23.2062 17.6576 23.4193 18.3944 22.9719C18.5409 22.8806 21.909 20.5053 19.8182 15.1652Z" fill="white"/>
<path d="M6.43474 34.2418C7.01606 34.3145 7.59121 34.0651 7.94353 33.5875C8.29586 33.1099 8.37184 32.4767 8.14285 31.9265C7.91387 31.3762 7.4147 30.9924 6.83339 30.9197C4.01847 30.5958 3.66051 29.0677 3.66051 28.885C3.57289 27.9676 2.77338 27.2965 1.87475 27.3859C0.976112 27.4754 0.318654 28.2915 0.406271 29.2089C0.406271 29.3833 0.845593 33.5441 6.43474 34.2418Z" fill="white"/>
<path d="M47.5927 38.2031H40.6774C40.0394 38.22 39.4699 38.6163 39.2212 39.2163C37.952 41.9404 31.6225 44.0167 23.9995 44.0167C16.3764 44.0167 10.0469 41.9404 8.77778 39.2163C8.52905 38.6163 7.95959 38.22 7.32151 38.2031H0.40625V48.9997H47.5927V38.2031ZM4.47405 46.5082H3.66049C3.21117 46.5082 2.84693 46.1364 2.84693 45.6777C2.84693 45.219 3.21117 44.8472 3.66049 44.8472H4.47405C4.92336 44.8472 5.28761 45.219 5.28761 45.6777C5.28761 46.1364 4.92336 46.5082 4.47405 46.5082ZM13.4232 46.5082H7.72828C7.27897 46.5082 6.91473 46.1364 6.91473 45.6777C6.91473 45.219 7.27897 44.8472 7.72828 44.8472H13.4232C13.8725 44.8472 14.2368 45.219 14.2368 45.6777C14.2368 46.1364 13.8725 46.5082 13.4232 46.5082Z" fill="white"/>
</svg>
