<svg width="109" height="109" viewBox="0 0 109 109" fill="none" xmlns="http://www.w3.org/2000/svg">
<g clip-path="url(#clip0_2096_10)">
<path d="M38.6041 45.4172C44.8748 45.4172 49.9582 40.3338 49.9582 34.0631C49.9582 27.7924 44.8748 22.709 38.6041 22.709C32.3334 22.709 27.25 27.7924 27.25 34.0631C27.25 40.3338 32.3334 45.4172 38.6041 45.4172Z" fill="#EBA707"/>
<path d="M54.5 0C24.4469 0 0 24.4492 0 54.5C0 84.5508 24.4469 109 54.5 109C84.5531 109 109 84.5508 109 54.5C109 24.4492 84.5531 0 54.5 0ZM67.3077 99.8372C68.7251 95.3282 68.1474 90.8621 68.125 90.8334C68.125 75.8069 80.3485 63.5834 95.375 63.5834C97.5974 63.5834 99.7606 63.9447 101.886 64.468L67.3077 99.8372ZM95.375 59.0416C93.5378 59.0416 91.7476 59.2323 89.9946 59.5334L67.4597 36.9987C66.5726 36.1116 65.1356 36.1116 64.2487 36.9987L44.5563 56.6911C43.6692 57.5782 43.6692 59.0152 44.5563 59.9021L50.2335 65.5793C51.1206 66.464 51.1206 67.9055 50.2335 68.7903C49.373 69.6463 47.8827 69.6463 47.0224 68.7903L31.1265 52.8944C30.2394 52.0073 28.8024 52.0073 27.9155 52.8944L8.04705 72.7628C5.8117 67.098 4.54181 60.9499 4.54181 54.5C4.5416 26.9528 26.9528 4.5416 54.5 4.5416C82.0472 4.5416 104.458 26.9528 104.458 54.5C104.458 56.4511 104.318 58.3678 104.099 60.261C101.273 59.455 98.3506 59.0416 95.375 59.0416Z" fill="white"/>
</g>
<defs>
<clipPath id="clip0_2096_10">
<rect width="109" height="109" fill="white"/>
</clipPath>
</defs>
</svg>
