<svg width="569" height="174" viewBox="0 0 569 174" fill="none" xmlns="http://www.w3.org/2000/svg">
<path d="M72.4688 58.1133L74.4666 58.2053L74.563 56.1133H72.4688V58.1133ZM67.6641 73.875L69.3436 74.9609L69.3478 74.9543L67.6641 73.875ZM55.3008 84.4219L54.4492 82.6122L54.444 82.6147L55.3008 84.4219ZM5.37891 20.1445L3.56596 19.3L3.56365 19.305L5.37891 20.1445ZM17.9766 5.61328L19.0322 7.31202L19.0409 7.30655L17.9766 5.61328ZM61.9219 8.66016L60.6095 10.1694L60.6149 10.174L61.9219 8.66016ZM72.6445 31.1602V33.1602H74.8322L74.6365 30.9813L72.6445 31.1602ZM52.1367 31.1602L50.1376 31.2203L50.196 33.1602H52.1367V31.1602ZM25.7109 22.3125L27.4089 23.3694L25.7109 22.3125ZM21.9609 40.6523L19.9611 40.6244L19.9609 40.6384V40.6523H21.9609ZM25.3594 66.1992L23.6293 67.2027L23.6331 67.2091L23.6368 67.2155L25.3594 66.1992ZM52.0195 58.1133V56.1133H50.083L50.0206 58.0488L52.0195 58.1133ZM70.4709 58.0213C70.212 63.642 68.7027 68.5488 65.9803 72.7957L69.3478 74.9543C72.4848 70.0606 74.1786 64.4595 74.4666 58.2053L70.4709 58.0213ZM65.9845 72.7891C63.2756 76.979 59.4544 80.2568 54.4492 82.6122L56.1524 86.2315C61.7721 83.5869 66.1932 79.8335 69.3436 74.9609L65.9845 72.7891ZM54.444 82.6147C49.479 84.9685 43.7444 86.1719 37.1953 86.1719V90.1719C44.24 90.1719 50.5757 88.8753 56.1575 86.2291L54.444 82.6147ZM37.1953 86.1719C26.4624 86.1719 18.2172 82.6991 12.2106 75.8916L9.21126 78.5381C16.0953 86.34 25.5063 90.1719 37.1953 90.1719V86.1719ZM12.2106 75.8916C6.18963 69.0678 3.04297 59.2903 3.04297 46.2773H-0.957031C-0.957031 59.905 2.34162 70.7525 9.21126 78.5381L12.2106 75.8916ZM3.04297 46.2773V42.0586H-0.957031V46.2773H3.04297ZM3.04297 42.0586C3.04297 33.9283 4.44843 26.9208 7.19416 20.9841L3.56365 19.305C0.528128 25.8683 -0.957031 33.4701 -0.957031 42.0586H3.04297ZM7.19185 20.9891C9.97074 15.0237 13.9193 10.4893 19.0322 7.312L16.9209 3.91456C11.0963 7.53413 6.64644 12.6872 3.56597 19.3L7.19185 20.9891ZM19.0409 7.30655C24.1557 4.09156 30.1062 2.45703 36.9609 2.45703V-1.54297C29.4407 -1.54297 22.735 0.260002 16.9122 3.92001L19.0409 7.30655ZM36.9609 2.45703C46.9512 2.45703 54.7664 5.0884 60.6095 10.1694L63.2342 7.15095C56.4992 1.29441 47.6738 -1.54297 36.9609 -1.54297V2.45703ZM60.6149 10.174C66.4494 15.2113 69.8318 22.1986 70.6525 31.339L74.6365 30.9813C73.7385 20.9811 69.9725 12.9684 63.2289 7.1463L60.6149 10.174ZM72.6445 29.1602H52.1367V33.1602H72.6445V29.1602ZM54.1358 31.1C53.9721 25.658 52.595 21.2863 49.5656 18.4974L46.8563 21.4401C48.7488 23.1824 49.9888 26.2717 50.1376 31.2203L54.1358 31.1ZM49.5656 18.4974C46.5866 15.7548 42.2542 14.5703 36.9609 14.5703V18.5703C41.7458 18.5703 44.9134 19.6515 46.8563 21.4401L49.5656 18.4974ZM36.9609 14.5703C31.2632 14.5703 26.8156 16.753 24.013 21.2556L27.4089 23.3694C29.3719 20.2157 32.4243 18.5703 36.9609 18.5703V14.5703ZM24.013 21.2556C21.3339 25.5597 20.0797 32.128 19.9611 40.6244L23.9607 40.6802C24.0766 32.3798 25.3223 26.7215 27.4089 23.3694L24.013 21.2556ZM19.9609 40.6523V46.6875H23.9609V40.6523H19.9609ZM19.9609 46.6875C19.9609 55.8505 21.0829 62.8122 23.6293 67.2027L27.0894 65.1958C25.1046 61.7737 23.9609 55.7277 23.9609 46.6875H19.9609ZM23.6368 67.2155C26.3887 71.8797 31.0927 74.0586 37.1953 74.0586V70.0586C32.1261 70.0586 28.9394 68.3312 27.0819 65.1829L23.6368 67.2155ZM37.1953 74.0586C42.2114 74.0586 46.3726 72.8777 49.3653 70.2123L46.705 67.2252C44.6977 69.0129 41.6323 70.0586 37.1953 70.0586V74.0586ZM49.3653 70.2123C52.4288 67.4839 53.8526 63.3217 54.0185 58.1778L50.0206 58.0488C49.874 62.5924 48.6415 65.5005 46.705 67.2252L49.3653 70.2123ZM52.0195 60.1133H72.4688V56.1133H52.0195V60.1133ZM136.805 38.7188V40.7188H138.805V38.7188H136.805ZM116.824 38.7188V36.7188H114.824V38.7188H116.824ZM116.824 87V89H118.824V87H116.824ZM96.9609 87H94.9609V89H96.9609V87ZM96.9609 38.7188H98.9609V36.7188H96.9609V38.7188ZM77.2734 38.7188H75.2734V40.7188H77.2734V38.7188ZM77.2734 23.6016V21.6016H75.2734V23.6016H77.2734ZM136.805 23.6016H138.805V21.6016H136.805V23.6016ZM136.805 36.7188H116.824V40.7188H136.805V36.7188ZM114.824 38.7188V87H118.824V38.7188H114.824ZM116.824 85H96.9609V89H116.824V85ZM98.9609 87V38.7188H94.9609V87H98.9609ZM96.9609 36.7188H77.2734V40.7188H96.9609V36.7188ZM79.2734 38.7188V23.6016H75.2734V38.7188H79.2734ZM77.2734 25.6016H136.805V21.6016H77.2734V25.6016ZM134.805 23.6016V38.7188H138.805V23.6016H134.805ZM178.992 87L177.236 87.9577L177.805 89H178.992V87ZM177.117 81.3164L179.071 80.889L178.171 76.7761L175.552 80.0719L177.117 81.3164ZM146.648 82.7812L145.336 84.2908L145.345 84.2978L146.648 82.7812ZM176.238 48.2695V50.2695H178.238V48.2695H176.238ZM161.648 43.1133V45.1133H163.648V43.1133H161.648ZM141.902 43.1133H139.902V45.1133H141.902V43.1133ZM149.695 28.1719L148.515 26.5575L148.509 26.5618L149.695 28.1719ZM188.836 28.3477L190.124 26.8175L188.836 28.3477ZM196.043 44.5781H198.043V44.5611L198.043 44.544L196.043 44.5781ZM196.043 72.6445H194.043V72.658L194.043 72.6714L196.043 72.6445ZM198.738 86.0039H200.738V85.4845L200.486 85.0307L198.738 86.0039ZM198.738 87V89H200.738V87H198.738ZM172.723 72.5273L171.641 70.845L171.632 70.8509L171.623 70.857L172.723 72.5273ZM176.238 68.9531L178.006 69.8889L178.238 69.4499V68.9531H176.238ZM176.238 58.8164H178.238V56.8164H176.238V58.8164ZM162 72.4688L160.634 73.9293L160.646 73.9412L160.659 73.953L162 72.4688ZM180.748 86.0423C180.179 84.9988 179.603 83.3193 179.071 80.889L175.163 81.7438C175.726 84.3135 176.399 86.423 177.236 87.9577L180.748 86.0423ZM175.552 80.0719C172.346 84.1046 167.878 86.1719 161.883 86.1719V90.1719C168.935 90.1719 174.623 87.6688 178.683 82.5609L175.552 80.0719ZM161.883 86.1719C156.341 86.1719 151.738 84.5193 147.952 81.2647L145.345 84.2978C149.919 88.2307 155.471 90.1719 161.883 90.1719V86.1719ZM147.96 81.2717C144.211 78.0133 142.379 74.0103 142.379 69.1289H138.379C138.379 75.1851 140.726 80.2836 145.336 84.2908L147.96 81.2717ZM142.379 69.1289C142.379 62.8235 144.664 58.2827 149.135 55.1874L146.858 51.8986C141.172 55.8345 138.379 61.6843 138.379 69.1289H142.379ZM149.135 55.1874C153.737 52.0008 160.65 50.2695 170.145 50.2695V46.2695C160.264 46.2695 152.411 48.0538 146.858 51.8986L149.135 55.1874ZM170.145 50.2695H176.238V46.2695H170.145V50.2695ZM178.238 48.2695V44.9297H174.238V48.2695H178.238ZM178.238 44.9297C178.238 41.7762 177.562 39.0378 175.861 37.0727C174.112 35.0526 171.589 34.1992 168.68 34.1992V38.1992C170.81 38.1992 172.066 38.8009 172.837 39.6909C173.655 40.6361 174.238 42.2628 174.238 44.9297H178.238ZM168.68 34.1992C166.036 34.1992 163.684 34.8494 162.004 36.5017C160.317 38.1601 159.648 40.4917 159.648 43.1133H163.648C163.648 41.1255 164.151 40.0001 164.809 39.3538C165.472 38.7014 166.636 38.1992 168.68 38.1992V34.1992ZM161.648 41.1133H141.902V45.1133H161.648V41.1133ZM143.902 43.1133C143.902 37.6539 146.167 33.2562 150.882 29.782L148.509 26.5618C142.833 30.7438 139.902 36.307 139.902 43.1133H143.902ZM150.876 29.7862C155.691 26.2648 161.908 24.4297 169.676 24.4297V20.4297C161.271 20.4297 154.168 22.4227 148.515 26.5575L150.876 29.7862ZM169.676 24.4297C177.443 24.4297 183.323 26.3214 187.548 29.8778L190.124 26.8175C184.974 22.4833 178.081 20.4297 169.676 20.4297V24.4297ZM187.548 29.8778C191.736 33.4028 193.935 38.2364 194.043 44.6122L198.043 44.544C197.917 37.1699 195.311 31.1832 190.124 26.8175L187.548 29.8778ZM194.043 44.5781V72.6445H198.043V44.5781H194.043ZM194.043 72.6714C194.123 78.6328 195.038 83.4714 196.991 86.9771L200.486 85.0307C199.001 82.3645 198.119 78.2969 198.043 72.6177L194.043 72.6714ZM196.738 86.0039V87H200.738V86.0039H196.738ZM198.738 85H178.992V89H198.738V85ZM166.629 76.1094C169.371 76.1094 171.813 75.5208 173.823 74.1977L171.623 70.857C170.429 71.6433 168.809 72.1094 166.629 72.1094V76.1094ZM173.804 74.2097C175.65 73.0231 177.101 71.598 178.006 69.8889L174.471 68.0173C173.969 68.9645 173.077 69.9222 171.641 70.845L173.804 74.2097ZM178.238 68.9531V58.8164H174.238V68.9531H178.238ZM176.238 56.8164H170.496V60.8164H176.238V56.8164ZM170.496 56.8164C166.8 56.8164 163.655 57.6412 161.426 59.6426C159.155 61.6809 158.184 64.6209 158.184 68.0742H162.184C162.184 65.3557 162.931 63.6668 164.098 62.6191C165.306 61.5346 167.317 60.8164 170.496 60.8164V56.8164ZM158.184 68.0742C158.184 70.373 158.982 72.3844 160.634 73.9293L163.366 71.0082C162.596 70.2874 162.184 69.3692 162.184 68.0742H158.184ZM160.659 73.953C162.293 75.428 164.337 76.1094 166.629 76.1094V72.1094C165.17 72.1094 164.129 71.697 163.341 70.9845L160.659 73.953ZM263.484 87V89H265.484V87H263.484ZM243.68 87H241.68V89H243.68V87ZM243.68 63.5039H245.68V61.5039H243.68V63.5039ZM226.395 63.5039V61.5039H224.395V63.5039H226.395ZM226.395 87V89H228.395V87H226.395ZM206.648 87H204.648V89H206.648V87ZM206.648 23.6016V21.6016H204.648V23.6016H206.648ZM226.395 23.6016H228.395V21.6016H226.395V23.6016ZM226.395 48.3281H224.395V50.3281H226.395V48.3281ZM243.68 48.3281V50.3281H245.68V48.3281H243.68ZM243.68 23.6016V21.6016H241.68V23.6016H243.68ZM263.484 23.6016H265.484V21.6016H263.484V23.6016ZM263.484 85H243.68V89H263.484V85ZM245.68 87V63.5039H241.68V87H245.68ZM243.68 61.5039H226.395V65.5039H243.68V61.5039ZM224.395 63.5039V87H228.395V63.5039H224.395ZM226.395 85H206.648V89H226.395V85ZM208.648 87V23.6016H204.648V87H208.648ZM206.648 25.6016H226.395V21.6016H206.648V25.6016ZM224.395 23.6016V48.3281H228.395V23.6016H224.395ZM226.395 50.3281H243.68V46.3281H226.395V50.3281ZM245.68 48.3281V23.6016H241.68V48.3281H245.68ZM243.68 25.6016H263.484V21.6016H243.68V25.6016ZM261.484 23.6016V87H265.484V23.6016H261.484ZM295.477 41.0039H293.477V43.0039H295.477V41.0039ZM326.824 80.7891L328.059 82.3621L328.061 82.3609L326.824 80.7891ZM275.613 87H273.613V89H275.613V87ZM275.613 23.6016V21.6016H273.613V23.6016H275.613ZM295.477 23.6016H297.477V21.6016H295.477V23.6016ZM295.477 56.1797V54.1797H293.477V56.1797H295.477ZM295.477 71.8828H293.477V73.8828H295.477V71.8828ZM312.527 69.832L313.79 71.3832L313.794 71.3799L312.527 69.832ZM312.82 58.4062L311.425 59.8387L312.82 58.4062ZM295.477 43.0039H305.613V39.0039H295.477V43.0039ZM305.613 43.0039C311.257 43.0039 316.135 43.9256 320.292 45.7125L321.872 42.0375C317.123 39.9963 311.689 39.0039 305.613 39.0039V43.0039ZM320.292 45.7125C324.443 47.4967 327.515 49.981 329.613 53.1289L332.941 50.9101C330.353 47.0269 326.627 44.0814 321.872 42.0375L320.292 45.7125ZM329.613 53.1289C331.716 56.2833 332.793 59.9708 332.793 64.2656H336.793C336.793 59.2635 335.526 54.787 332.941 50.9101L329.613 53.1289ZM332.793 64.2656C332.793 70.4964 330.412 75.4217 325.588 79.2172L328.061 82.3609C333.862 77.797 336.793 71.7067 336.793 64.2656H332.793ZM325.589 79.216C320.777 82.9947 314.057 85 305.203 85V89C314.63 89 322.325 86.8647 328.059 82.3621L325.589 79.216ZM305.203 85H275.613V89H305.203V85ZM277.613 87V23.6016H273.613V87H277.613ZM275.613 25.6016H295.477V21.6016H275.613V25.6016ZM293.477 23.6016V41.0039H297.477V23.6016H293.477ZM293.477 56.1797V71.8828H297.477V56.1797H293.477ZM295.477 73.8828H305.496V69.8828H295.477V73.8828ZM305.496 73.8828C308.787 73.8828 311.637 73.1355 313.79 71.3832L311.265 68.2809C310.058 69.2629 308.221 69.8828 305.496 69.8828V73.8828ZM313.794 71.3799C316.014 69.5632 317.105 67.081 317.105 64.1484H313.105C313.105 65.9815 312.478 67.2883 311.261 68.2841L313.794 71.3799ZM317.105 64.1484C317.105 61.3259 316.167 58.8749 314.216 56.9738L311.425 59.8387C312.52 60.9063 313.105 62.2835 313.105 64.1484H317.105ZM314.216 56.9738C312.153 54.9633 309.086 54.1797 305.496 54.1797V58.1797C308.625 58.1797 310.441 58.8805 311.425 59.8387L314.216 56.9738ZM305.496 54.1797H295.477V58.1797H305.496V54.1797ZM21.2578 127V129H23.2578V127H21.2578ZM1.51172 127H-0.488281V129H1.51172V127ZM8.71875 112.938L7.51874 111.337L7.51253 111.342L8.71875 112.938ZM47.7422 112.352L46.642 114.022L46.6513 114.028L47.7422 112.352ZM52.5469 133.738L50.9248 132.568L50.9212 132.573L52.5469 133.738ZM45.3984 139.363L44.5691 137.543L40.0484 139.603L44.7355 141.25L45.3984 139.363ZM48.3867 167.957L47.2802 166.291L47.2744 166.295L48.3867 167.957ZM8.07422 167.781L6.9046 169.404L6.91294 169.41L8.07422 167.781ZM0.515625 153.25V151.25H-1.48438V153.25H0.515625ZM20.2617 153.25H22.2617V151.25H20.2617V153.25ZM22.2539 157.41L20.9307 158.91L20.9432 158.921L20.956 158.932L22.2539 157.41ZM34.5586 157.293L33.2111 155.815L33.2001 155.825L33.1892 155.835L34.5586 157.293ZM28.9922 145.281L29.0542 143.282L29.0232 143.281H28.9922V145.281ZM20.1445 145.281H18.1445V147.281H20.1445V145.281ZM20.1445 133.797V131.797H18.1445V133.797H20.1445ZM37.3789 127.762C37.3789 125.354 36.7376 123.188 35.1131 121.651C33.5092 120.133 31.2856 119.551 28.8164 119.551V123.551C30.7222 123.551 31.7799 124.004 32.3635 124.556C32.9265 125.089 33.3789 126.029 33.3789 127.762H37.3789ZM28.8164 119.551C26.1165 119.551 23.7313 120.027 21.9779 121.291C20.1033 122.642 19.2578 124.665 19.2578 127H23.2578C23.2578 125.702 23.6721 125 24.3171 124.535C25.0832 123.983 26.4772 123.551 28.8164 123.551V119.551ZM21.2578 125H1.51172V129H21.2578V125ZM3.51172 127C3.51172 121.92 5.59163 117.809 9.92497 114.533L7.51253 111.342C2.23649 115.331 -0.488281 120.596 -0.488281 127H3.51172ZM9.91875 114.537C14.3323 111.227 20.1464 109.488 27.5273 109.488V105.488C19.5177 105.488 12.7927 107.382 7.51875 111.338L9.91875 114.537ZM27.5273 109.488C35.8585 109.488 42.1631 111.071 46.642 114.022L48.8424 110.681C43.4776 107.147 36.3055 105.488 27.5273 105.488V109.488ZM46.6513 114.028C51.0076 116.863 53.125 120.764 53.125 125.945H57.125C57.125 119.408 54.3205 114.246 48.8331 110.675L46.6513 114.028ZM53.125 125.945C53.125 128.318 52.4095 130.51 50.9248 132.568L54.1689 134.908C56.1217 132.201 57.125 129.197 57.125 125.945H53.125ZM50.9212 132.573C49.4785 134.586 47.3933 136.256 44.5691 137.543L46.2278 141.183C49.5754 139.658 52.2559 137.578 54.1725 134.903L50.9212 132.573ZM44.7355 141.25C48.0678 142.421 50.4048 144.077 51.9184 146.131C53.4256 148.176 54.2383 150.78 54.2383 154.07H58.2383C58.2383 150.095 57.2443 146.615 55.1383 143.758C53.0385 140.909 49.9557 138.845 46.0614 137.476L44.7355 141.25ZM54.2383 154.07C54.2383 159.115 52.014 163.147 47.2802 166.291L49.4932 169.623C55.2282 165.814 58.2383 160.588 58.2383 154.07H54.2383ZM47.2744 166.295C42.5143 169.48 35.9926 171.172 27.5273 171.172V175.172C36.4839 175.172 43.8685 173.387 49.499 169.619L47.2744 166.295ZM27.5273 171.172C19.8968 171.172 13.8513 169.445 9.2355 166.153L6.91294 169.41C12.3753 173.305 19.2985 175.172 27.5273 175.172V171.172ZM9.24382 166.159C4.71013 162.89 2.51562 158.642 2.51562 153.25H-1.48438C-1.48438 159.967 1.36018 165.406 6.90462 169.404L9.24382 166.159ZM0.515625 155.25H20.2617V151.25H0.515625V155.25ZM18.2617 153.25C18.2617 155.49 19.2233 157.403 20.9307 158.91L23.5772 155.91C22.6283 155.073 22.2617 154.213 22.2617 153.25H18.2617ZM20.956 158.932C22.8356 160.535 25.6424 161.109 28.875 161.109V157.109C25.9358 157.109 24.3285 156.551 23.5518 155.888L20.956 158.932ZM28.875 161.109C31.673 161.109 34.1386 160.432 35.9279 158.751L33.1892 155.835C32.4004 156.576 31.077 157.109 28.875 157.109V161.109ZM35.9061 158.771C37.7228 157.115 38.5508 154.878 38.5508 152.312H34.5508C34.5508 153.966 34.0507 155.05 33.2111 155.815L35.9061 158.771ZM38.5508 152.312C38.5508 149.676 37.8078 147.352 36.0233 145.692C34.2757 144.066 31.8374 143.369 29.0542 143.282L28.9302 147.28C31.186 147.35 32.527 147.903 33.2989 148.621C34.034 149.304 34.5508 150.418 34.5508 152.312H38.5508ZM28.9922 143.281H20.1445V147.281H28.9922V143.281ZM22.1445 145.281V133.797H18.1445V145.281H22.1445ZM20.1445 135.797H28.1719V131.797H20.1445V135.797ZM28.1719 135.797C30.8045 135.797 33.1515 135.253 34.8612 133.821C36.6388 132.333 37.3789 130.184 37.3789 127.762H33.3789C33.3789 129.363 32.9178 130.232 32.2931 130.755C31.6004 131.335 30.3439 131.797 28.1719 131.797V135.797ZM100.359 172L98.6036 172.958L99.1721 174H100.359V172ZM98.4844 166.316L100.438 165.889L99.5385 161.776L96.9187 165.072L98.4844 166.316ZM68.0156 167.781L66.7036 169.291L66.7117 169.298L68.0156 167.781ZM97.6055 133.27V135.27H99.6055V133.27H97.6055ZM83.0156 128.113V130.113H85.0156V128.113H83.0156ZM63.2695 128.113H61.2695V130.113H63.2695V128.113ZM71.0625 113.172L69.8819 111.558L69.8761 111.562L71.0625 113.172ZM110.203 113.348L111.491 111.818L110.203 113.348ZM117.41 129.578H119.41V129.561L119.41 129.544L117.41 129.578ZM117.41 157.645H115.41V157.658L115.41 157.671L117.41 157.645ZM120.105 171.004H122.105V170.485L121.853 170.031L120.105 171.004ZM120.105 172V174H122.105V172H120.105ZM94.0898 157.527L93.0083 155.845L92.9991 155.851L92.9899 155.857L94.0898 157.527ZM97.6055 153.953L99.373 154.889L99.6055 154.45V153.953H97.6055ZM97.6055 143.816H99.6055V141.816H97.6055V143.816ZM83.3672 157.469L82.0009 158.929L82.0136 158.941L82.0266 158.953L83.3672 157.469ZM102.115 171.042C101.546 169.999 100.97 168.319 100.438 165.889L96.5306 166.744C97.0927 169.313 97.7665 171.423 98.6036 172.958L102.115 171.042ZM96.9187 165.072C93.7132 169.105 89.245 171.172 83.25 171.172V175.172C90.3018 175.172 95.9899 172.669 100.05 167.561L96.9187 165.072ZM83.25 171.172C77.7084 171.172 73.1048 169.519 69.3195 166.265L66.7117 169.298C71.2859 173.231 76.8384 175.172 83.25 175.172V171.172ZM69.3276 166.272C65.5786 163.013 63.7461 159.01 63.7461 154.129H59.7461C59.7461 160.185 62.0932 165.284 66.7036 169.291L69.3276 166.272ZM63.7461 154.129C63.7461 147.824 66.0307 143.283 70.5017 140.187L68.2249 136.899C62.5396 140.835 59.7461 146.684 59.7461 154.129H63.7461ZM70.5017 140.187C75.1044 137.001 82.017 135.27 91.5117 135.27V131.27C81.6314 131.27 73.7784 133.054 68.2249 136.899L70.5017 140.187ZM91.5117 135.27H97.6055V131.27H91.5117V135.27ZM99.6055 133.27V129.93H95.6055V133.27H99.6055ZM99.6055 129.93C99.6055 126.776 98.9291 124.038 97.2279 122.073C95.4789 120.053 92.9558 119.199 90.0469 119.199V123.199C92.177 123.199 93.4332 123.801 94.2038 124.691C95.022 125.636 95.6055 127.263 95.6055 129.93H99.6055ZM90.0469 119.199C87.4032 119.199 85.0515 119.849 83.3712 121.502C81.6846 123.16 81.0156 125.492 81.0156 128.113H85.0156C85.0156 126.125 85.5185 125 86.1757 124.354C86.8392 123.701 88.003 123.199 90.0469 123.199V119.199ZM83.0156 126.113H63.2695V130.113H83.0156V126.113ZM65.2695 128.113C65.2695 122.654 67.5338 118.256 72.2489 114.782L69.8761 111.562C64.2005 115.744 61.2695 121.307 61.2695 128.113H65.2695ZM72.2431 114.786C77.0581 111.265 83.2754 109.43 91.043 109.43V105.43C82.6387 105.43 75.5356 107.423 69.8819 111.558L72.2431 114.786ZM91.043 109.43C98.8101 109.43 104.69 111.321 108.915 114.878L111.491 111.818C106.341 107.483 99.4478 105.43 91.043 105.43V109.43ZM108.915 114.878C113.103 118.403 115.302 123.236 115.41 129.612L119.41 129.544C119.284 122.17 116.678 116.183 111.491 111.818L108.915 114.878ZM115.41 129.578V157.645H119.41V129.578H115.41ZM115.41 157.671C115.49 163.633 116.406 168.471 118.358 171.977L121.853 170.031C120.368 167.365 119.486 163.297 119.41 157.618L115.41 157.671ZM118.105 171.004V172H122.105V171.004H118.105ZM120.105 170H100.359V174H120.105V170ZM87.9961 161.109C90.7382 161.109 93.1807 160.521 95.1898 159.198L92.9899 155.857C91.7959 156.643 90.1759 157.109 87.9961 157.109V161.109ZM95.1714 159.21C97.0172 158.023 98.4682 156.598 99.373 154.889L95.8379 153.017C95.3365 153.964 94.4438 154.922 93.0083 155.845L95.1714 159.21ZM99.6055 153.953V143.816H95.6055V153.953H99.6055ZM97.6055 141.816H91.8633V145.816H97.6055V141.816ZM91.8633 141.816C88.1675 141.816 85.0223 142.641 82.7928 144.643C80.5224 146.681 79.5508 149.621 79.5508 153.074H83.5508C83.5508 150.356 84.2979 148.667 85.465 147.619C86.673 146.535 88.684 145.816 91.8633 145.816V141.816ZM79.5508 153.074C79.5508 155.373 80.3495 157.384 82.0009 158.929L84.7335 156.008C83.963 155.287 83.5508 154.369 83.5508 153.074H79.5508ZM82.0266 158.953C83.6597 160.428 85.7047 161.109 87.9961 161.109V157.109C86.5375 157.109 85.4965 156.697 84.7078 155.985L82.0266 158.953ZM168.094 150.203L166.2 150.846L168.078 156.38L169.984 150.856L168.094 150.203ZM182.449 108.602V106.602H181.024L180.559 107.949L182.449 108.602ZM207.293 108.602H209.293V106.602H207.293V108.602ZM207.293 172V174H209.293V172H207.293ZM187.488 172H185.488V174H187.488V172ZM187.488 136.844H189.488L185.609 136.161L187.488 136.844ZM174.715 172V174H176.116L176.595 172.683L174.715 172ZM161.59 172L159.71 172.682L160.188 174H161.59V172ZM149.52 138.719L151.4 138.037L147.52 138.719H149.52ZM149.52 172V174H151.52V172H149.52ZM129.715 172H127.715V174H129.715V172ZM129.715 108.602V106.602H127.715V108.602H129.715ZM153.973 108.602L155.867 107.959L155.406 106.602H153.973V108.602ZM169.984 150.856L184.34 109.254L180.559 107.949L166.203 149.551L169.984 150.856ZM182.449 110.602H207.293V106.602H182.449V110.602ZM205.293 108.602V172H209.293V108.602H205.293ZM207.293 170H187.488V174H207.293V170ZM189.488 172V136.844H185.488V172H189.488ZM185.609 136.161L172.835 171.317L176.595 172.683L189.368 137.527L185.609 136.161ZM174.715 170H161.59V174H174.715V170ZM163.47 171.318L151.4 138.037L147.639 139.401L159.71 172.682L163.47 171.318ZM147.52 138.719V172H151.52V138.719H147.52ZM149.52 170H129.715V174H149.52V170ZM131.715 172V108.602H127.715V172H131.715ZM129.715 110.602H153.973V106.602H129.715V110.602ZM152.079 109.244L166.2 150.846L169.988 149.56L155.867 107.959L152.079 109.244ZM227.566 164.5L226.176 165.937L226.181 165.942L227.566 164.5ZM222.117 123.016L220.32 122.138L220.314 122.15L222.117 123.016ZM232.664 111.531L233.674 113.258L233.684 113.251L232.664 111.531ZM270.164 115.75L268.699 117.112L268.704 117.117L270.164 115.75ZM277.898 146.512V148.512H279.898V146.512H277.898ZM238.641 146.512V144.512H236.206L236.679 146.9L238.641 146.512ZM267.176 151.375L268.703 150.083L267.136 148.232L265.617 150.122L267.176 151.375ZM276.199 162.039L277.819 163.212L278.738 161.943L277.726 160.747L276.199 162.039ZM265.711 170.184L266.522 172.012L266.529 172.009L265.711 170.184ZM238.641 134.148L236.661 133.866L236.335 136.148H238.641V134.148ZM258.562 134.148V136.148H260.562V134.148H258.562ZM258.562 132.625L256.563 132.576L256.562 132.6V132.625H258.562ZM256.16 125.301L254.714 126.682L254.722 126.691L254.73 126.699L256.16 125.301ZM251.18 171.172C241.878 171.172 234.534 168.422 228.952 163.058L226.181 165.942C232.63 172.14 241.028 175.172 251.18 175.172V171.172ZM228.957 163.063C223.376 157.663 220.543 150.645 220.543 141.824H216.543C216.543 151.597 219.726 159.697 226.176 165.937L228.957 163.063ZM220.543 141.824V140.184H216.543V141.824H220.543ZM220.543 140.184C220.543 133.946 221.688 128.528 223.92 123.882L220.314 122.15C217.781 127.425 216.543 133.452 216.543 140.184H220.543ZM223.914 123.893C226.169 119.274 229.417 115.747 233.674 113.258L231.654 109.805C226.693 112.706 222.909 116.835 220.32 122.138L223.914 123.893ZM233.684 113.251C237.933 110.731 243.036 109.43 249.07 109.43V105.43C242.449 105.43 236.614 106.863 231.644 109.811L233.684 113.251ZM249.07 109.43C257.527 109.43 263.988 112.044 268.699 117.112L271.629 114.388C266.027 108.362 258.426 105.43 249.07 105.43V109.43ZM268.704 117.117C273.417 122.151 275.898 129.299 275.898 138.836H279.898C279.898 128.607 277.224 120.365 271.624 114.383L268.704 117.117ZM275.898 138.836V146.512H279.898V138.836H275.898ZM277.898 144.512H238.641V148.512H277.898V144.512ZM236.679 146.9C237.455 150.824 239.194 154.044 241.972 156.413L244.567 153.369C242.58 151.674 241.233 149.309 240.603 146.124L236.679 146.9ZM241.972 156.413C244.789 158.814 248.367 159.938 252.527 159.938V155.938C249.11 155.938 246.516 155.03 244.567 153.369L241.972 156.413ZM252.527 159.938C259.305 159.938 264.793 157.533 268.735 152.628L265.617 150.122C262.527 153.967 258.249 155.938 252.527 155.938V159.938ZM265.649 152.667L274.672 163.331L277.726 160.747L268.703 150.083L265.649 152.667ZM274.579 160.866C272.359 163.933 269.163 166.444 264.893 168.359L266.529 172.009C271.321 169.86 275.118 166.942 277.819 163.212L274.579 160.866ZM264.9 168.355C260.678 170.228 256.112 171.172 251.18 171.172V175.172C256.638 175.172 261.76 174.124 266.522 172.012L264.9 168.355ZM248.953 120.664C245.573 120.664 242.698 121.808 240.551 124.199C238.465 126.521 237.237 129.83 236.661 133.866L240.621 134.431C241.138 130.81 242.175 128.377 243.527 126.871C244.817 125.435 246.552 124.664 248.953 124.664V120.664ZM238.641 136.148H258.562V132.148H238.641V136.148ZM260.562 134.148V132.625H256.562V134.148H260.562ZM260.562 132.674C260.649 129.149 259.756 126.119 257.591 123.903L254.73 126.699C255.924 127.92 256.632 129.773 256.563 132.576L260.562 132.674ZM257.606 123.919C255.449 121.662 252.46 120.664 248.953 120.664V124.664C251.696 124.664 253.512 125.424 254.714 126.682L257.606 123.919ZM340.711 123.719V125.719H342.711V123.719H340.711ZM320.73 123.719V121.719H318.73V123.719H320.73ZM320.73 172V174H322.73V172H320.73ZM300.867 172H298.867V174H300.867V172ZM300.867 123.719H302.867V121.719H300.867V123.719ZM281.18 123.719H279.18V125.719H281.18V123.719ZM281.18 108.602V106.602H279.18V108.602H281.18ZM340.711 108.602H342.711V106.602H340.711V108.602ZM340.711 121.719H320.73V125.719H340.711V121.719ZM318.73 123.719V172H322.73V123.719H318.73ZM320.73 170H300.867V174H320.73V170ZM302.867 172V123.719H298.867V172H302.867ZM300.867 121.719H281.18V125.719H300.867V121.719ZM283.18 123.719V108.602H279.18V123.719H283.18ZM281.18 110.602H340.711V106.602H281.18V110.602ZM338.711 108.602V123.719H342.711V108.602H338.711ZM404.578 172V174H406.578V172H404.578ZM384.773 172H382.773V174H384.773V172ZM384.773 148.504H386.773V146.504H384.773V148.504ZM367.488 148.504V146.504H365.488V148.504H367.488ZM367.488 172V174H369.488V172H367.488ZM347.742 172H345.742V174H347.742V172ZM347.742 108.602V106.602H345.742V108.602H347.742ZM367.488 108.602H369.488V106.602H367.488V108.602ZM367.488 133.328H365.488V135.328H367.488V133.328ZM384.773 133.328V135.328H386.773V133.328H384.773ZM384.773 108.602V106.602H382.773V108.602H384.773ZM404.578 108.602H406.578V106.602H404.578V108.602ZM404.578 170H384.773V174H404.578V170ZM386.773 172V148.504H382.773V172H386.773ZM384.773 146.504H367.488V150.504H384.773V146.504ZM365.488 148.504V172H369.488V148.504H365.488ZM367.488 170H347.742V174H367.488V170ZM349.742 172V108.602H345.742V172H349.742ZM347.742 110.602H367.488V106.602H347.742V110.602ZM365.488 108.602V133.328H369.488V108.602H365.488ZM367.488 135.328H384.773V131.328H367.488V135.328ZM386.773 133.328V108.602H382.773V133.328H386.773ZM384.773 110.602H404.578V106.602H384.773V110.602ZM402.578 108.602V172H406.578V108.602H402.578ZM422.449 164.5L421.059 165.937L421.063 165.942L422.449 164.5ZM417 123.016L415.203 122.138L415.197 122.15L417 123.016ZM427.547 111.531L428.556 113.258L428.567 113.251L427.547 111.531ZM465.047 115.75L463.582 117.112L463.587 117.117L465.047 115.75ZM472.781 146.512V148.512H474.781V146.512H472.781ZM433.523 146.512V144.512H431.089L431.561 146.9L433.523 146.512ZM462.059 151.375L463.585 150.083L462.019 148.232L460.5 150.122L462.059 151.375ZM471.082 162.039L472.702 163.212L473.621 161.943L472.609 160.747L471.082 162.039ZM460.594 170.184L461.405 172.012L461.412 172.009L460.594 170.184ZM433.523 134.148L431.544 133.866L431.217 136.148H433.523V134.148ZM453.445 134.148V136.148H455.445V134.148H453.445ZM453.445 132.625L451.446 132.576L451.445 132.6V132.625H453.445ZM451.043 125.301L449.597 126.682L449.605 126.691L449.613 126.699L451.043 125.301ZM446.062 171.172C436.761 171.172 429.417 168.422 423.835 163.058L421.063 165.942C427.513 172.14 435.911 175.172 446.062 175.172V171.172ZM423.84 163.063C418.259 157.663 415.426 150.645 415.426 141.824H411.426C411.426 151.597 414.608 159.697 421.059 165.937L423.84 163.063ZM415.426 141.824V140.184H411.426V141.824H415.426ZM415.426 140.184C415.426 133.946 416.571 128.528 418.803 123.882L415.197 122.15C412.663 127.425 411.426 133.452 411.426 140.184H415.426ZM418.797 123.893C421.052 119.274 424.3 115.747 428.556 113.258L426.537 109.805C421.575 112.706 417.791 116.835 415.203 122.138L418.797 123.893ZM428.567 113.251C432.816 110.731 437.919 109.43 443.953 109.43V105.43C437.331 105.43 431.496 106.863 426.526 109.811L428.567 113.251ZM443.953 109.43C452.41 109.43 458.871 112.044 463.582 117.112L466.512 114.388C460.91 108.362 453.309 105.43 443.953 105.43V109.43ZM463.587 117.117C468.299 122.151 470.781 129.299 470.781 138.836H474.781C474.781 128.607 472.107 120.365 466.507 114.383L463.587 117.117ZM470.781 138.836V146.512H474.781V138.836H470.781ZM472.781 144.512H433.523V148.512H472.781V144.512ZM431.561 146.9C432.338 150.824 434.077 154.044 436.855 156.413L439.45 153.369C437.462 151.674 436.116 149.309 435.485 146.124L431.561 146.9ZM436.855 156.413C439.672 158.814 443.25 159.938 447.41 159.938V155.938C443.992 155.938 441.399 155.03 439.45 153.369L436.855 156.413ZM447.41 159.938C454.188 159.938 459.676 157.533 463.618 152.628L460.5 150.122C457.41 153.967 453.132 155.938 447.41 155.938V159.938ZM460.532 152.667L469.555 163.331L472.609 160.747L463.585 150.083L460.532 152.667ZM469.462 160.866C467.242 163.933 464.046 166.444 459.776 168.359L461.412 172.009C466.204 169.86 470.001 166.942 472.702 163.212L469.462 160.866ZM459.783 168.355C455.561 170.228 450.995 171.172 446.062 171.172V175.172C451.521 175.172 456.643 174.124 461.405 172.012L459.783 168.355ZM443.836 120.664C440.456 120.664 437.581 121.808 435.434 124.199C433.348 126.521 432.12 129.83 431.544 133.866L435.503 134.431C436.021 130.81 437.058 128.377 438.41 126.871C439.7 125.435 441.435 124.664 443.836 124.664V120.664ZM433.523 136.148H453.445V132.148H433.523V136.148ZM455.445 134.148V132.625H451.445V134.148H455.445ZM455.445 132.674C455.532 129.149 454.639 126.119 452.473 123.903L449.613 126.699C450.807 127.92 451.515 129.773 451.446 132.576L455.445 132.674ZM452.489 123.919C450.332 121.662 447.343 120.664 443.836 120.664V124.664C446.579 124.664 448.395 125.424 449.597 126.682L452.489 123.919ZM487.84 164.5L486.449 165.937L486.454 165.942L487.84 164.5ZM482.391 123.016L480.593 122.138L480.588 122.15L482.391 123.016ZM492.938 111.531L493.947 113.258L493.958 113.251L492.938 111.531ZM530.438 115.75L528.973 117.112L528.977 117.117L530.438 115.75ZM538.172 146.512V148.512H540.172V146.512H538.172ZM498.914 146.512V144.512H496.48L496.952 146.9L498.914 146.512ZM527.449 151.375L528.976 150.083L527.409 148.232L525.89 150.122L527.449 151.375ZM536.473 162.039L538.093 163.212L539.011 161.943L537.999 160.747L536.473 162.039ZM525.984 170.184L526.795 172.012L526.802 172.009L525.984 170.184ZM498.914 134.148L496.934 133.866L496.608 136.148H498.914V134.148ZM518.836 134.148V136.148H520.836V134.148H518.836ZM518.836 132.625L516.837 132.576L516.836 132.6V132.625H518.836ZM516.434 125.301L514.988 126.682L514.995 126.691L515.003 126.699L516.434 125.301ZM511.453 171.172C502.151 171.172 494.807 168.422 489.226 163.058L486.454 165.942C492.904 172.14 501.302 175.172 511.453 175.172V171.172ZM489.231 163.063C483.649 157.663 480.816 150.645 480.816 141.824H476.816C476.816 151.597 479.999 159.697 486.449 165.937L489.231 163.063ZM480.816 141.824V140.184H476.816V141.824H480.816ZM480.816 140.184C480.816 133.946 481.962 128.528 484.193 123.882L480.588 122.15C478.054 127.425 476.816 133.452 476.816 140.184H480.816ZM484.188 123.893C486.443 119.274 489.69 115.747 493.947 113.258L491.928 109.805C486.966 112.706 483.182 116.835 480.593 122.138L484.188 123.893ZM493.958 113.251C498.207 110.731 503.309 109.43 509.344 109.43V105.43C502.722 105.43 496.887 106.863 491.917 109.811L493.958 113.251ZM509.344 109.43C517.801 109.43 524.262 112.044 528.973 117.112L531.902 114.388C526.301 108.362 518.699 105.43 509.344 105.43V109.43ZM528.977 117.117C533.69 122.151 536.172 129.299 536.172 138.836H540.172C540.172 128.607 537.497 120.365 531.898 114.383L528.977 117.117ZM536.172 138.836V146.512H540.172V138.836H536.172ZM538.172 144.512H498.914V148.512H538.172V144.512ZM496.952 146.9C497.728 150.824 499.467 154.044 502.246 156.413L504.84 153.369C502.853 151.674 501.506 149.309 500.876 146.124L496.952 146.9ZM502.246 156.413C505.062 158.814 508.64 159.938 512.801 159.938V155.938C509.383 155.938 506.789 155.03 504.84 153.369L502.246 156.413ZM512.801 159.938C519.579 159.938 525.067 157.533 529.008 152.628L525.89 150.122C522.801 153.967 518.523 155.938 512.801 155.938V159.938ZM525.922 152.667L534.946 163.331L537.999 160.747L528.976 150.083L525.922 152.667ZM534.853 160.866C532.632 163.933 529.437 166.444 525.166 168.359L526.802 172.009C531.595 169.86 535.391 166.942 538.093 163.212L534.853 160.866ZM525.174 168.355C520.951 170.228 516.385 171.172 511.453 171.172V175.172C516.911 175.172 522.033 174.124 526.795 172.012L525.174 168.355ZM509.227 120.664C505.846 120.664 502.972 121.808 500.824 124.199C498.739 126.521 497.511 129.83 496.934 133.866L500.894 134.431C501.411 130.81 502.449 128.377 503.801 126.871C505.091 125.435 506.826 124.664 509.227 124.664V120.664ZM498.914 136.148H518.836V132.148H498.914V136.148ZM520.836 134.148V132.625H516.836V134.148H520.836ZM520.835 132.674C520.922 129.149 520.029 126.119 517.864 123.903L515.003 126.699C516.197 127.92 516.906 129.773 516.837 132.576L520.835 132.674ZM517.88 123.919C515.722 121.662 512.734 120.664 509.227 120.664V124.664C511.97 124.664 513.785 125.424 514.988 126.682L517.88 123.919ZM565.77 144.988V146.988H567.685L567.768 145.075L565.77 144.988ZM549.773 144.988L547.775 145.075L547.858 146.988H549.773V144.988ZM547.254 86.6875V84.6875H545.166L545.256 86.7738L547.254 86.6875ZM568.289 86.6875L570.287 86.7738L570.377 84.6875H568.289V86.6875ZM549.773 156.062L551.1 157.559L551.102 157.557L549.773 156.062ZM565.418 156.062L564.075 157.545L564.09 157.558L564.105 157.571L565.418 156.062ZM565.418 170.301L566.745 171.797L566.747 171.796L565.418 170.301ZM549.773 170.301L548.431 171.783L548.445 171.796L548.46 171.809L549.773 170.301ZM565.77 142.988H549.773V146.988H565.77V142.988ZM551.772 144.902L549.252 86.6012L545.256 86.7738L547.775 145.075L551.772 144.902ZM547.254 88.6875H568.289V84.6875H547.254V88.6875ZM566.291 86.6012L563.771 144.902L567.768 145.075L570.287 86.7738L566.291 86.6012ZM548.668 163.152C548.668 160.805 549.479 158.996 551.1 157.559L548.446 154.566C545.927 156.8 544.668 159.719 544.668 163.152H548.668ZM551.102 157.557C552.805 156.043 554.933 155.25 557.625 155.25V151.25C554.067 151.25 550.96 152.332 548.445 154.568L551.102 157.557ZM557.625 155.25C560.317 155.25 562.417 156.043 564.075 157.545L566.76 154.58C564.278 152.332 561.183 151.25 557.625 151.25V155.25ZM564.105 157.571C565.761 159.013 566.582 160.818 566.582 163.152H570.582C570.582 159.705 569.293 156.784 566.731 154.554L564.105 157.571ZM566.582 163.152C566.582 165.488 565.76 167.321 564.089 168.806L566.747 171.796C569.295 169.531 570.582 166.598 570.582 163.152H566.582ZM564.091 168.804C562.434 170.274 560.329 171.055 557.625 171.055V175.055C561.171 175.055 564.261 174 566.745 171.797L564.091 168.804ZM557.625 171.055C554.922 171.055 552.788 170.274 551.086 168.792L548.46 171.809C550.977 174 554.078 175.055 557.625 175.055V171.055ZM551.116 168.818C549.481 167.337 548.668 165.501 548.668 163.152H544.668C544.668 166.585 545.926 169.514 548.431 171.783L551.116 168.818Z" fill="white"/>
</svg>
