<svg width="132" height="132" viewBox="0 0 132 132" fill="none" xmlns="http://www.w3.org/2000/svg">
<path d="M130.813 114.258C131.376 116.299 131.846 117.876 131.94 119.082C132.127 120.288 131.846 121.215 131.376 121.864C130.813 122.514 129.781 122.978 128.279 123.256C126.871 123.534 124.806 123.72 122.178 123.998C119.456 124.276 117.204 124.369 115.702 124.462C114.107 124.462 112.886 124.462 112.042 124.183C111.197 123.998 110.634 123.627 110.258 123.163C109.883 122.699 109.601 122.143 109.414 121.308L102.093 98.0254L55.5395 99.4168L46.9046 125.389C46.623 126.41 46.2476 127.244 45.7783 127.894C45.309 128.636 44.5581 129.1 43.5257 129.656C42.4933 130.12 40.9915 130.491 39.0205 130.769C37.0495 131.048 34.4215 131.326 31.2303 131.604C27.6638 131.882 24.9419 132.068 22.877 131.975C20.8122 131.975 19.4043 131.511 18.6534 130.769C17.8087 130.027 17.5271 128.821 17.8087 127.337C18.0903 125.853 18.6534 123.812 19.592 121.215L63.3296 4.98809C63.7051 3.96774 64.1744 3.13291 64.7375 2.4836C65.2068 1.83429 66.1454 1.46325 67.2717 1.27773C68.4918 1.09221 70.0874 1.09221 72.0584 1.37049C74.0294 1.55601 76.6574 1.92705 79.9424 2.4836C83.6967 3.04015 86.6063 3.59671 88.765 3.96774C90.9238 4.43154 92.5193 4.89533 93.7395 5.45189C94.8658 6.00844 95.7105 6.65775 96.2736 7.39983C96.7429 8.1419 97.2122 9.16225 97.5877 10.3681L130.719 114.258H130.813ZM79.8486 26.6009H79.7547L62.0156 79.1953L96.6491 79.4736L79.8486 26.6009Z" fill="white"/>
<path fill-rule="evenodd" clip-rule="evenodd" d="M49.4751 0H58.3916C59.6118 0 60.1749 0.92759 59.7995 2.13346L12.5891 126.431C12.1198 127.636 10.712 128.935 9.58567 128.564L1.51392 126.431C0.387628 126.152 -0.269375 125.503 0.106055 124.297L46.5655 2.13346C47.0348 0.92759 48.3488 0 49.569 0L49.4751 0Z" fill="#EBA707"/>
</svg>
